<?xml version="1.0" encoding="utf-8"?>
<!-- Generator: Adobe Illustrator 22.1.0, SVG Export Plug-In . SVG Version: 6.00 Build 0)  -->
<svg version="1.1" id="Capa_1" xmlns="http://www.w3.org/2000/svg" xmlns:xlink="http://www.w3.org/1999/xlink" x="0px" y="0px"
	 viewBox="0 0 523.3 526.4" style="enable-background:new 0 0 523.3 526.4;" xml:space="preserve">
<style type="text/css">
	.st0{fill:#FFFFFF;}
</style>
<path class="st0" d="M517.1,259.9c0-141.2-114.8-256-256-256s-256,114.8-256,256c0,74.6,32.1,141.8,83.1,188.6l-0.2,0.2l8.3,7
	c0.5,0.5,1.1,0.8,1.7,1.3c4.4,3.7,9,7.1,13.6,10.5c1.5,1.1,3,2.2,4.6,3.2c5,3.4,10.1,6.7,15.3,9.8c1.1,0.7,2.3,1.3,3.4,2
	c5.7,3.2,11.5,6.3,17.5,9.1c0.4,0.2,0.9,0.4,1.3,0.6c19.4,9,40.2,15.7,61.9,19.6c0.6,0.1,1.1,0.2,1.7,0.3c6.7,1.2,13.6,2.1,20.5,2.7
	c0.8,0.1,1.7,0.1,2.5,0.2c6.9,0.6,13.8,0.9,20.9,0.9c7,0,13.9-0.4,20.7-0.9c0.9-0.1,1.7-0.1,2.6-0.2c6.8-0.6,13.6-1.5,20.3-2.7
	c0.6-0.1,1.2-0.2,1.7-0.3c21.4-3.8,41.8-10.3,61-19.1c0.7-0.3,1.4-0.6,2.1-1c5.7-2.7,11.4-5.6,16.9-8.7c1.4-0.8,2.7-1.6,4.1-2.4
	c5-3,9.9-6,14.7-9.3c1.7-1.2,3.4-2.4,5.1-3.6c4.1-2.9,8.1-6,12-9.2c0.9-0.7,1.8-1.3,2.6-2l8.5-7.1l-0.3-0.2
	C484.8,402.3,517.1,334.8,517.1,259.9z M261.1,499.5c-132.4,0-239.7-107.3-239.7-239.7S128.8,20.2,261.1,20.2
	s239.7,107.3,239.7,239.7S393.5,499.5,261.1,499.5z"/>
<g>
	<path class="st0" d="M369,335.2V279c0-43.9-26.2-83-66.8-99.7c-6.5-2.7-11.2-8.8-11.2-17c0-26-31.5-39.8-50.4-21.3
		c-15.6,15.3-2.3,30.8-20.4,38.2c-40.6,16.7-66.8,55.8-66.8,99.7v56.2H369z"/>
	<path class="st0" d="M405.2,398.7l-28.6-42H145.7l-28.6,42c-7.3,10.7-6.9,24.8,1,35.1c5.6,7.3,14.7,11.7,24.2,11.7h237.8
		c9.5,0,18.6-4.4,24.2-11.7C412.1,423.6,412.5,409.4,405.2,398.7z"/>
	<path class="st0" d="M205.5,467.1c11.1,19.4,31.9,32.4,55.6,32.4c23.7,0,44.5-13.1,55.6-32.4H205.5z"/>
</g>
</svg>
