<?xml version="1.0" encoding="utf-8"?>
<!-- Generator: Adobe Illustrator 22.1.0, SVG Export Plug-In . SVG Version: 6.00 Build 0)  -->
<svg version="1.1" id="Camada_1" xmlns="http://www.w3.org/2000/svg" xmlns:xlink="http://www.w3.org/1999/xlink" x="0px" y="0px"
	 viewBox="0 0 65 65" style="enable-background:new 0 0 65 65;" xml:space="preserve">
<style type="text/css">
	.st0{opacity:0.5;}
	.st1{fill:#EFEEEE;}
	.st2{fill:url(#SVGID_1_);}
</style>
<g class="st0">
	
		<image style="overflow:visible;" width="541" height="539" xlink:href="13A423BA.png"  transform="matrix(0.24 0 0 0.24 -33.12 -31.2)">
	</image>
</g>
<rect x="3.5" y="4" class="st1" width="59" height="57"/>
<linearGradient id="SVGID_1_" gradientUnits="userSpaceOnUse" x1="32.5" y1="52.725" x2="32.5" y2="12.275">
	<stop  offset="0" style="stop-color:#B14330"/>
	<stop  offset="1" style="stop-color:#C87733"/>
</linearGradient>
<path class="st2" d="M44.1,26.7c0-8-8.4-14.4-18.8-14.4S6.5,18.7,6.5,26.7c0,3.1,1.3,6,3.4,8.3c-1.2,2.7-3.2,4.9-3.2,4.9
	c-0.2,0.2-0.3,0.5-0.1,0.8c0.1,0.3,0.4,0.4,0.7,0.4c3.3,0,6-1.1,8-2.3c2.9,1.4,6.3,2.3,10,2.3C35.7,41.2,44.1,34.7,44.1,26.7z
	 M55.1,46.6c2.2-2.3,3.4-5.2,3.4-8.3c0-6-4.8-11.2-11.7-13.4c0.1,0.6,0.1,1.2,0.1,1.8c0,9.6-9.7,17.3-21.7,17.3
	c-1,0-1.9-0.1-2.9-0.2c2.8,5.2,9.5,8.8,17.3,8.8c3.7,0,7.1-0.8,10-2.3c2,1.1,4.7,2.3,8,2.3c0.3,0,0.6-0.2,0.7-0.4
	c0.1-0.3,0.1-0.6-0.1-0.8C58.3,51.5,56.3,49.3,55.1,46.6z"/>
</svg>
