<?xml version="1.0" encoding="utf-8"?>
<!-- Generator: Adobe Illustrator 22.1.0, SVG Export Plug-In . SVG Version: 6.00 Build 0)  -->
<svg version="1.1" id="Camada_1" xmlns="http://www.w3.org/2000/svg" xmlns:xlink="http://www.w3.org/1999/xlink" x="0px" y="0px"
	 viewBox="0 0 870.3 215.4" style="enable-background:new 0 0 870.3 215.4;" xml:space="preserve">
<style type="text/css">
	.st0{fill:#D27A31;}
</style>
<g>
	<g>
		<path class="st0" d="M196.7,85.9c-3.3,1.4-5.6,2.2-7.9,3.2c-22.4,10.2-44.9,20.3-67.2,30.7c-3.7,1.7-6.7,1.7-10.4,0
			c-24-11-48.1-21.8-72.2-32.6c-1.6-0.7-3.1-1.6-5.3-2.7c10.3-4.5,19.9-8.8,29.5-13c17.1-7.5,34.3-15,51.3-22.6
			c3-1.3,5.4-1.2,8.4,0.1c24.9,11.2,49.9,22.3,74.8,33.3c2.4,1.1,3.3,2.4,3.3,5c-0.1,13.7,0,27.3-0.1,41c0,2.8,0.3,5,3,6.8
			c2.8,1.9,3.9,5.1,2.7,8c-2.8-1.2-5.3-3.1-7.8-3c-2.3,0.1-4.6,2.3-6.9,3.7c-1.8-2.7-1.6-6.1,1.9-8.6c2.6-1.9,3.1-3.9,3.1-6.8
			c-0.1-12.3,0-24.7,0-37C196.7,90,196.7,88.5,196.7,85.9z"/>
		<path class="st0" d="M66.5,105.2c9.2,4.1,17.5,7.8,25.8,11.6c6.6,3,13.3,5.9,19.8,9.1c2.9,1.4,5.5,1.4,8.4,0
			c12.5-5.8,25.1-11.5,37.6-17.2c1.5-0.7,2.9-1.2,5-2.1c0.1,2.1,0.3,3.6,0.3,5.2c0,10-0.2,19.9,0.1,29.9c0.2,4.7-1.6,7.9-4.9,10.8
			c-9.4,8.2-20.6,12.2-32.6,14.2c-17.7,2.9-34.2-0.9-49.4-10.2c-1.9-1.2-3.5-2.7-5.3-4.1c-3.6-2.8-5.3-6.3-5.1-11.1
			c0.4-10.1,0.1-20.2,0.1-30.3C66.5,109.3,66.5,107.7,66.5,105.2z"/>
		<path class="st0" d="M199.1,179.6c-8.4,0-8.9,0-8.3-8.7c0.5-7.6,2.1-15.2,3.4-22.7c0.4-2.5,1.6-4.8,4.8-4.9c3.3-0.1,4.6,2.1,5,4.7
			c1.4,7.7,3,15.4,3.5,23.2C208.2,179.6,207.7,179.6,199.1,179.6z"/>
	</g>
	<g>
		<path class="st0" d="M277.3,77.9c1.3,0,2.5,0.5,3.5,1.4s1.5,2.1,1.5,3.4c0,1.4-0.5,2.6-1.5,3.5s-2.1,1.4-3.5,1.4h-30.2v24.6h23.1
			c1.3,0,2.5,0.5,3.5,1.4s1.5,2.1,1.5,3.4c0,1.4-0.5,2.6-1.5,3.5s-2.1,1.4-3.5,1.4h-23.1v28.3c0,1.5-0.5,2.7-1.5,3.8
			c-1,1-2.3,1.5-3.8,1.5s-2.7-0.5-3.7-1.5s-1.5-2.3-1.5-3.8V83.3c0-1.5,0.5-2.8,1.6-3.8c1-1,2.3-1.6,3.7-1.6H277.3z"/>
		<path class="st0" d="M291.5,83.6c0-1.9,0.7-3.5,2.1-4.8c1.4-1.2,3-1.8,5-1.8c1.9,0,3.6,0.6,5,1.8c1.4,1.2,2.1,2.8,2.1,4.8
			c0,1.9-0.7,3.5-2.1,4.8c-1.4,1.2-3,1.8-5,1.8c-1.9,0-3.6-0.6-5-1.8S291.5,85.6,291.5,83.6z M303.7,150.5c0,1.4-0.5,2.6-1.5,3.6
			s-2.2,1.5-3.7,1.5c-1.4,0-2.6-0.5-3.6-1.5s-1.5-2.2-1.5-3.6v-43.1c0-1.4,0.5-2.6,1.5-3.6s2.2-1.5,3.6-1.5c1.5,0,2.7,0.5,3.7,1.5
			s1.5,2.2,1.5,3.6V150.5z"/>
		<path class="st0" d="M361.6,78.9c0-1.4,0.5-2.6,1.5-3.6s2.2-1.5,3.7-1.5c1.4,0,2.6,0.5,3.6,1.5s1.5,2.2,1.5,3.6v71.5
			c0,1.4-0.5,2.6-1.5,3.6s-2.2,1.5-3.6,1.5c-1.5,0-2.7-0.5-3.7-1.5s-1.5-2.2-1.5-3.6V147c-0.9,1.5-2,2.8-3.3,3.9
			c-1.3,1.1-2.8,2.1-4.4,2.9c-1.6,0.8-3.3,1.4-5.1,1.8c-1.8,0.4-3.6,0.6-5.4,0.6c-3.6,0-7-0.7-10.2-2s-6-3.1-8.5-5.5
			c-2.4-2.4-4.3-5.2-5.8-8.6c-1.4-3.4-2.1-7.1-2.1-11.3s0.7-7.9,2.1-11.3s3.3-6.2,5.7-8.6c2.4-2.4,5.2-4.2,8.5-5.4
			c3.2-1.3,6.6-1.9,10.2-1.9c3.8,0,7.4,0.7,10.7,2.2c3.4,1.5,5.9,3.7,7.6,6.7L361.6,78.9L361.6,78.9z M361.5,128.8
			c0-2.8-0.5-5.2-1.5-7.4c-1-2.2-2.3-4-4-5.4c-1.6-1.4-3.5-2.5-5.6-3.2s-4.2-1.1-6.3-1.1c-2.4,0-4.6,0.4-6.7,1.2
			c-2.1,0.8-3.8,2-5.3,3.5s-2.7,3.3-3.6,5.4s-1.3,4.4-1.3,7.1c0,2.6,0.4,5,1.3,7.1s2.1,4,3.6,5.5s3.3,2.7,5.3,3.6
			c2.1,0.9,4.3,1.3,6.7,1.3c2.3,0,4.5-0.4,6.6-1.2s3.9-1.9,5.5-3.4s2.9-3.3,3.8-5.5C361,134,361.5,131.5,361.5,128.8z"/>
		<path class="st0" d="M437.8,128.8c0,1.2-0.4,2.2-1.2,2.9c-0.8,0.7-1.8,1.1-2.8,1.1h-38.5c0.6,4.4,2.4,7.9,5.5,10.4
			s6.9,3.8,11.4,3.8c3.1,0,5.7-0.4,7.7-1.3c2-0.9,3.9-2.3,5.7-4.2c1-1,2.1-1.7,3.4-2s2.4-0.1,3.5,0.7c1,0.8,1.7,1.9,1.8,3.1
			c0.2,1.3-0.1,2.4-1,3.2c-2.5,3.3-5.7,5.7-9.4,7.3c-3.7,1.6-7.7,2.4-12,2.4c-3.7,0-7.2-0.7-10.5-2c-3.2-1.3-6.1-3.2-8.5-5.5
			c-2.4-2.4-4.3-5.3-5.7-8.6c-1.4-3.4-2.1-7.1-2.1-11.3c0-4.1,0.7-7.8,2.1-11.2c1.4-3.4,3.3-6.2,5.7-8.6c2.4-2.4,5.3-4.2,8.5-5.4
			c3.2-1.3,6.7-1.9,10.5-1.9c3.7,0,7.2,0.6,10.4,1.9c3.2,1.3,5.9,3.1,8.2,5.4c2.3,2.4,4.1,5.2,5.4,8.6
			C437.2,120.9,437.8,124.6,437.8,128.8z M427.8,124.8c-0.6-4.4-2.3-7.8-5.2-10.3c-2.9-2.5-6.4-3.7-10.7-3.7c-4.3,0-8,1.2-11.1,3.7
			s-4.9,5.9-5.5,10.3H427.8z"/>
		<path class="st0" d="M460.1,150.5c0,1.4-0.5,2.6-1.5,3.6s-2.2,1.5-3.7,1.5c-1.4,0-2.6-0.5-3.6-1.5s-1.5-2.2-1.5-3.6V78.9
			c0-1.4,0.5-2.6,1.5-3.6s2.2-1.5,3.6-1.5c1.5,0,2.7,0.5,3.7,1.5s1.5,2.2,1.5,3.6V150.5z"/>
		<path class="st0" d="M474.3,83.6c0-1.9,0.7-3.5,2.1-4.8c1.4-1.2,3-1.8,5-1.8c1.9,0,3.6,0.6,5,1.8c1.4,1.2,2.1,2.8,2.1,4.8
			c0,1.9-0.7,3.5-2.1,4.8c-1.4,1.2-3,1.8-5,1.8c-1.9,0-3.6-0.6-5-1.8S474.3,85.6,474.3,83.6z M486.5,150.5c0,1.4-0.5,2.6-1.5,3.6
			s-2.2,1.5-3.7,1.5c-1.4,0-2.6-0.5-3.6-1.5s-1.5-2.2-1.5-3.6v-43.1c0-1.4,0.5-2.6,1.5-3.6s2.2-1.5,3.6-1.5c1.5,0,2.7,0.5,3.7,1.5
			s1.5,2.2,1.5,3.6V150.5z"/>
		<path class="st0" d="M530.2,112.5h-25c-1.3,0-2.5-0.5-3.5-1.4s-1.5-2.1-1.5-3.4c0-1.4,0.5-2.6,1.5-3.5s2.1-1.4,3.5-1.4h34.7
			c1.6,0,3,0.5,4.1,1.4s1.6,2.1,1.6,3.4v0.2c0,1-0.2,2-0.6,2.8c-0.4,0.8-1,1.7-1.8,2.7l-29.8,32h27.3c1.3,0,2.5,0.5,3.5,1.4
			s1.5,2.1,1.5,3.5c0,1.3-0.5,2.5-1.5,3.4s-2.1,1.4-3.5,1.4h-36.5c-1.6,0-3-0.5-4.1-1.4s-1.6-2.1-1.6-3.4V150c0-1,0.2-2,0.6-2.8
			s1-1.7,1.8-2.7L530.2,112.5z"/>
		<path class="st0" d="M600.3,147c-0.9,1.5-2,2.8-3.4,3.9c-1.3,1.1-2.8,2.1-4.4,2.9c-1.6,0.8-3.3,1.4-5.1,1.8
			c-1.8,0.4-3.6,0.6-5.4,0.6c-3.6,0-7-0.7-10.2-2s-6-3.1-8.5-5.5c-2.4-2.4-4.3-5.2-5.8-8.6c-1.4-3.4-2.1-7.1-2.1-11.3
			s0.7-7.9,2.1-11.3c1.4-3.4,3.3-6.2,5.8-8.6c2.4-2.4,5.2-4.2,8.5-5.4c3.2-1.3,6.6-1.9,10.2-1.9c1.8,0,3.6,0.2,5.4,0.6
			c1.8,0.4,3.5,0.9,5.1,1.7c1.6,0.7,3.1,1.7,4.4,2.8c1.3,1.1,2.5,2.4,3.4,3.9v-3.2c0-1.4,0.5-2.6,1.5-3.6s2.2-1.5,3.6-1.5
			c1.5,0,2.7,0.5,3.7,1.5s1.5,2.2,1.5,3.6v43.1c0,1.4-0.5,2.6-1.5,3.6s-2.2,1.5-3.7,1.5c-1.4,0-2.6-0.5-3.6-1.5s-1.5-2.2-1.5-3.6
			V147z M600.2,128.8c0-2.8-0.5-5.2-1.5-7.4c-1-2.2-2.3-4-4-5.4c-1.6-1.4-3.5-2.5-5.6-3.2s-4.2-1.1-6.3-1.1c-2.4,0-4.6,0.4-6.7,1.2
			c-2.1,0.8-3.8,2-5.4,3.5c-1.5,1.5-2.7,3.3-3.6,5.4c-0.9,2.1-1.3,4.4-1.3,7.1c0,2.6,0.4,5,1.3,7.1s2.1,4,3.6,5.5s3.3,2.7,5.4,3.6
			c2.1,0.9,4.3,1.3,6.7,1.3c2.3,0,4.5-0.4,6.6-1.2s3.9-1.9,5.5-3.4s2.9-3.3,3.8-5.5C599.7,134,600.2,131.5,600.2,128.8z"/>
		<path class="st0" d="M636.9,150.5c0,1.4-0.5,2.6-1.5,3.6s-2.2,1.5-3.7,1.5c-1.4,0-2.6-0.5-3.6-1.5s-1.5-2.2-1.5-3.6V78.9
			c0-1.4,0.5-2.6,1.5-3.6s2.2-1.5,3.6-1.5c1.5,0,2.7,0.5,3.7,1.5s1.5,2.2,1.5,3.6V150.5z"/>
		<path class="st0" d="M689.2,147.2c-0.8,1.6-1.8,2.9-3.1,4c-1.2,1.1-2.6,2.1-4.1,2.8s-3,1.3-4.6,1.6s-3.1,0.5-4.5,0.5
			c-6.6,0-11.6-2-15-6s-5.2-9.7-5.2-17.1v-25.6c0-1.4,0.5-2.6,1.5-3.6s2.2-1.5,3.7-1.5c1.4,0,2.6,0.5,3.6,1.5s1.5,2.2,1.5,3.6v25
			c0,4.4,1,7.8,3.1,10.2s4.9,3.6,8.5,3.6c1.9,0,3.7-0.3,5.4-0.8c1.8-0.6,3.3-1.4,4.7-2.6c1.4-1.2,2.5-2.8,3.4-4.7s1.3-4.3,1.3-7.1
			v-23.6c0-1.4,0.5-2.6,1.5-3.6s2.2-1.5,3.7-1.5c1.4,0,2.6,0.5,3.6,1.5s1.5,2.2,1.5,3.6v43.1c0,1.4-0.5,2.6-1.5,3.6
			s-2.2,1.5-3.6,1.5c-1.5,0-2.7-0.5-3.7-1.5s-1.5-2.2-1.5-3.6v-3.3H689.2z"/>
		<path class="st0" d="M725.7,110.6c0.7-1.6,1.8-2.9,3-4c1.3-1.1,2.6-2.1,4.1-2.8c1.5-0.7,3-1.3,4.6-1.6c1.6-0.3,3.1-0.5,4.5-0.5
			c6.6,0,11.6,2,15,6s5.1,9.7,5.1,17.1v25.6c0,1.4-0.5,2.6-1.5,3.6s-2.2,1.5-3.7,1.5c-1.4,0-2.6-0.5-3.6-1.5s-1.5-2.2-1.5-3.6v-25
			c0-4.4-1-7.8-3.1-10.2c-2.1-2.4-4.9-3.6-8.5-3.6c-1.9,0-3.7,0.3-5.4,0.8c-1.8,0.6-3.3,1.4-4.7,2.6s-2.5,2.8-3.4,4.7
			c-0.9,1.9-1.3,4.3-1.3,7.1v23.6c0,1.4-0.5,2.6-1.5,3.6s-2.2,1.5-3.7,1.5c-1.4,0-2.6-0.5-3.6-1.5s-1.5-2.2-1.5-3.6v-43.1
			c0-1.4,0.5-2.6,1.5-3.6s2.2-1.5,3.6-1.5c1.5,0,2.7,0.5,3.7,1.5s1.5,2.2,1.5,3.6v3.3H725.7z"/>
		<path class="st0" d="M802.1,156.2c-3.7,0-7.3-0.7-10.6-2s-6.2-3.2-8.7-5.5c-2.5-2.4-4.4-5.3-5.9-8.6s-2.2-7.1-2.2-11.3
			c0-4.1,0.7-7.8,2.2-11.2s3.4-6.2,5.9-8.6s5.4-4.2,8.7-5.4c3.3-1.3,6.8-1.9,10.6-1.9c3.7,0,7.3,0.6,10.6,1.9s6.2,3.1,8.7,5.4
			c2.5,2.4,4.5,5.2,5.9,8.6c1.5,3.4,2.2,7.1,2.2,11.2c0,4.2-0.7,7.9-2.2,11.3c-1.5,3.4-3.4,6.2-5.9,8.6c-2.5,2.4-5.4,4.2-8.7,5.5
			C809.4,155.5,805.9,156.2,802.1,156.2z M802.1,146.3c2.3,0,4.5-0.4,6.6-1.2s3.9-2,5.5-3.5s2.8-3.4,3.8-5.5
			c0.9-2.2,1.4-4.6,1.4-7.3c0-2.6-0.5-5-1.4-7.1s-2.2-3.9-3.8-5.4s-3.4-2.6-5.5-3.4s-4.3-1.2-6.6-1.2c-2.4,0-4.6,0.4-6.7,1.2
			c-2.1,0.8-3.9,1.9-5.5,3.4s-2.8,3.3-3.7,5.4s-1.3,4.5-1.3,7.1c0,2.7,0.4,5.1,1.3,7.3c0.9,2.2,2.1,4,3.7,5.5
			c1.6,1.5,3.4,2.7,5.5,3.5C797.5,145.9,799.7,146.3,802.1,146.3z"/>
	</g>
</g>
</svg>
