<?xml version="1.0" encoding="utf-8"?>
<!-- Generator: Adobe Illustrator 22.1.0, SVG Export Plug-In . SVG Version: 6.00 Build 0)  -->
<svg version="1.1" id="Camada_1" xmlns="http://www.w3.org/2000/svg" xmlns:xlink="http://www.w3.org/1999/xlink" x="0px" y="0px"
	 viewBox="0 0 68 53.7" style="enable-background:new 0 0 68 53.7;" xml:space="preserve">
<style type="text/css">
	.st0{fill:#D27A31;}
</style>
<g>
	<g>
		<path class="st0" d="M61.7,16c-1.2,0.4-2.1,0.9-3,1.2c-8.4,3.7-16.7,7.6-25.1,11.5c-1.3,0.6-2.5,0.6-3.9,0
			c-9-4-17.9-8.1-26.9-12.1c-0.6-0.3-1.2-0.6-1.9-1c3.9-1.6,7.5-3.3,11-4.8C18.5,8,24.7,5.3,31.1,2.4c1-0.4,2.1-0.4,3.1,0
			c9.3,4.2,18.5,8.4,27.9,12.4c0.9,0.4,1.2,0.9,1.2,1.8c0,5.1,0,10.1,0,15.2c0,1,0.1,1.8,1,2.5c1,0.7,1.5,1.9,1,3
			c-1-0.4-1.9-1.2-2.8-1c-0.9,0-1.6,0.9-2.5,1.3c-0.7-1-0.6-2.2,0.7-3.3c0.9-0.7,1.2-1.5,1.2-2.5c0-4.6,0-9.1,0-13.7
			C61.7,17.7,61.7,17.1,61.7,16z"/>
		<path class="st0" d="M13.2,23.3c3.4,1.5,6.6,3,9.6,4.3c2.5,1,4.9,2.2,7.3,3.4c1,0.6,2.1,0.4,3.1,0c4.6-2.2,9.4-4.3,14-6.4
			c0.6-0.3,1-0.4,1.9-0.7c0,0.7,0.1,1.3,0.1,1.9c0,3.7-0.1,7.5,0,11c0,1.8-0.6,3-1.8,4c-3.4,3-7.6,4.5-12.1,5.2
			c-6.6,1-12.7-0.3-18.4-3.7c-0.7-0.4-1.3-1-1.9-1.5c-1.3-1-1.9-2.4-1.9-4.2c0.1-3.7,0-7.5,0-11.3C13.2,24.8,13.2,24.2,13.2,23.3z"
			/>
		<path class="st0" d="M62.6,50.9c-3.1,0-3.3,0-3.1-3.3c0.1-2.8,0.7-5.7,1.3-8.5c0.1-0.9,0.6-1.8,1.8-1.8c1.2,0,1.6,0.7,1.9,1.8
			c0.4,2.8,1.2,5.7,1.3,8.7C66.1,50.9,65.9,50.9,62.6,50.9z"/>
	</g>
</g>
</svg>
