<?xml version="1.0" encoding="utf-8"?>
<!-- Generator: Adobe Illustrator 22.1.0, SVG Export Plug-In . SVG Version: 6.00 Build 0)  -->
<svg version="1.1" id="Camada_1" xmlns="http://www.w3.org/2000/svg" xmlns:xlink="http://www.w3.org/1999/xlink" x="0px" y="0px"
	 viewBox="0 0 107.8 64.9" style="enable-background:new 0 0 107.8 64.9;" xml:space="preserve">
<style type="text/css">
	.st0{fill:url(#SVGID_1_);}
	.st1{fill:url(#SVGID_2_);}
	.st2{fill:url(#SVGID_3_);}
	.st3{fill:url(#SVGID_4_);}
	.st4{fill:url(#SVGID_5_);}
	.st5{fill:url(#SVGID_6_);}
	.st6{fill:url(#SVGID_7_);}
	.st7{fill:url(#SVGID_8_);}
	.st8{fill:url(#SVGID_9_);}
	.st9{fill:url(#SVGID_10_);}
	.st10{fill:url(#SVGID_11_);}
	.st11{fill:url(#SVGID_12_);}
	.st12{fill:url(#SVGID_13_);}
	.st13{fill:url(#SVGID_14_);}
	.st14{fill:url(#SVGID_15_);}
</style>
<g>
	<linearGradient id="SVGID_1_" gradientUnits="userSpaceOnUse" x1="53.9513" y1="2.2305" x2="53.9513" y2="32.5249">
		<stop  offset="0" style="stop-color:#C87733"/>
		<stop  offset="1" style="stop-color:#B14330"/>
	</linearGradient>
	<path class="st0" d="M78.1,14.2c-1.1,0.4-1.8,0.7-2.5,1c-7.1,3.2-14.2,6.4-21.2,9.7c-1.2,0.5-2.1,0.5-3.3,0
		c-7.6-3.5-15.2-6.9-22.8-10.3c-0.5-0.2-1-0.5-1.7-0.9c3.2-1.4,6.3-2.8,9.3-4.1C41.3,7.3,46.7,5,52.1,2.5c0.9-0.4,1.7-0.4,2.7,0
		c7.8,3.6,15.7,7,23.6,10.5c0.7,0.4,1.1,0.7,1,1.6c0,4.3,0,8.6,0,13c0,0.9,0.1,1.6,0.9,2.1c0.9,0.6,1.2,1.6,0.9,2.5
		c-0.9-0.4-1.7-1-2.5-0.9c-0.7,0-1.4,0.7-2.2,1.2c-0.6-0.9-0.5-2,0.6-2.7c0.8-0.6,1-1.2,1-2.1c0-3.9,0-7.8,0-11.7
		C78.1,15.5,78.1,15.1,78.1,14.2z"/>
	<linearGradient id="SVGID_2_" gradientUnits="userSpaceOnUse" x1="52.2517" y1="20.3411" x2="52.2517" y2="40.0216">
		<stop  offset="0" style="stop-color:#C87733"/>
		<stop  offset="1" style="stop-color:#B14330"/>
	</linearGradient>
	<path class="st1" d="M37,20.3c2.9,1.3,5.5,2.5,8.2,3.7c2.1,0.9,4.2,1.9,6.2,2.9c0.9,0.4,1.7,0.4,2.7,0C58,25,62,23.2,65.9,21.4
		c0.5-0.2,0.9-0.4,1.6-0.7c0,0.7,0.1,1.1,0.1,1.6c0,3.1-0.1,6.3,0,9.4c0,1.5-0.5,2.5-1.6,3.4c-3,2.6-6.5,3.9-10.3,4.5
		c-5.6,0.9-10.8-0.3-15.6-3.2c-0.6-0.4-1.1-0.9-1.7-1.3c-1.1-0.9-1.6-2-1.6-3.5c0.1-3.2,0-6.4,0-9.6C37,21.6,37,21.1,37,20.3z"/>
	<linearGradient id="SVGID_3_" gradientUnits="userSpaceOnUse" x1="78.8828" y1="32.4062" x2="78.8828" y2="43.8497">
		<stop  offset="0" style="stop-color:#C87733"/>
		<stop  offset="1" style="stop-color:#B14330"/>
	</linearGradient>
	<path class="st2" d="M78.8,43.8c-2.7,0-2.8,0-2.6-2.7c0.2-2.4,0.7-4.8,1.1-7.2c0.2-0.8,0.5-1.5,1.5-1.5c1,0,1.4,0.7,1.6,1.5
		c0.4,2.4,0.9,4.9,1.1,7.3C81.7,43.8,81.5,43.8,78.8,43.8z"/>
</g>
<g>
	<linearGradient id="SVGID_4_" gradientUnits="userSpaceOnUse" x1="4.8378" y1="60.2291" x2="4.8378" y2="46.2713">
		<stop  offset="0" style="stop-color:#C87733"/>
		<stop  offset="1" style="stop-color:#B14330"/>
	</linearGradient>
	<path class="st3" d="M8,46.3c0.2,0,0.4,0.1,0.6,0.3c0.2,0.2,0.3,0.4,0.3,0.6c0,0.3-0.1,0.5-0.3,0.6C8.5,47.9,8.3,48,8,48H2.6v4.4
		h4.1c0.2,0,0.4,0.1,0.6,0.3c0.2,0.2,0.3,0.4,0.3,0.6c0,0.3-0.1,0.5-0.3,0.6c-0.2,0.2-0.4,0.3-0.6,0.3H2.6v5.1
		c0,0.3-0.1,0.5-0.3,0.7c-0.2,0.2-0.4,0.3-0.7,0.3c-0.3,0-0.5-0.1-0.7-0.3c-0.2-0.2-0.3-0.4-0.3-0.7v-12c0-0.3,0.1-0.5,0.3-0.7
		c0.2-0.2,0.4-0.3,0.7-0.3H8z"/>
	<linearGradient id="SVGID_5_" gradientUnits="userSpaceOnUse" x1="11.8672" y1="60.2291" x2="11.8672" y2="46.1106">
		<stop  offset="0" style="stop-color:#C87733"/>
		<stop  offset="1" style="stop-color:#B14330"/>
	</linearGradient>
	<path class="st4" d="M10.6,47.3c0-0.3,0.1-0.6,0.4-0.9c0.2-0.2,0.5-0.3,0.9-0.3c0.3,0,0.6,0.1,0.9,0.3c0.2,0.2,0.4,0.5,0.4,0.9
		c0,0.3-0.1,0.6-0.4,0.9c-0.2,0.2-0.5,0.3-0.9,0.3c-0.3,0-0.6-0.1-0.9-0.3C10.7,47.9,10.6,47.6,10.6,47.3z M12.8,59.3
		c0,0.3-0.1,0.5-0.3,0.7c-0.2,0.2-0.4,0.3-0.7,0.3c-0.3,0-0.5-0.1-0.6-0.3C11,59.8,11,59.6,11,59.3v-7.7c0-0.3,0.1-0.5,0.3-0.7
		c0.2-0.2,0.4-0.3,0.6-0.3c0.3,0,0.5,0.1,0.7,0.3c0.2,0.2,0.3,0.4,0.3,0.7V59.3z"/>
	<linearGradient id="SVGID_6_" gradientUnits="userSpaceOnUse" x1="20.083" y1="60.3309" x2="20.083" y2="45.5267">
		<stop  offset="0" style="stop-color:#C87733"/>
		<stop  offset="1" style="stop-color:#B14330"/>
	</linearGradient>
	<path class="st5" d="M23.2,46.5c0-0.3,0.1-0.5,0.3-0.7c0.2-0.2,0.4-0.3,0.7-0.3c0.3,0,0.5,0.1,0.6,0.3c0.2,0.2,0.3,0.4,0.3,0.7
		v12.9c0,0.3-0.1,0.5-0.3,0.7c-0.2,0.2-0.4,0.3-0.6,0.3c-0.3,0-0.5-0.1-0.7-0.3c-0.2-0.2-0.3-0.4-0.3-0.7v-0.6
		c-0.2,0.3-0.4,0.5-0.6,0.7c-0.2,0.2-0.5,0.4-0.8,0.5c-0.3,0.1-0.6,0.2-0.9,0.3c-0.3,0.1-0.7,0.1-1,0.1c-0.6,0-1.3-0.1-1.8-0.4
		c-0.6-0.2-1.1-0.6-1.5-1c-0.4-0.4-0.8-0.9-1-1.5c-0.3-0.6-0.4-1.3-0.4-2c0-0.7,0.1-1.4,0.4-2c0.2-0.6,0.6-1.1,1-1.5
		c0.4-0.4,0.9-0.7,1.5-1c0.6-0.2,1.2-0.3,1.8-0.3c0.7,0,1.3,0.1,1.9,0.4c0.6,0.3,1.1,0.7,1.4,1.2V46.5z M23.2,55.4
		c0-0.5-0.1-0.9-0.3-1.3c-0.2-0.4-0.4-0.7-0.7-1c-0.3-0.3-0.6-0.4-1-0.6c-0.4-0.1-0.8-0.2-1.1-0.2c-0.4,0-0.8,0.1-1.2,0.2
		c-0.4,0.1-0.7,0.4-1,0.6c-0.3,0.3-0.5,0.6-0.6,1c-0.2,0.4-0.2,0.8-0.2,1.3c0,0.5,0.1,0.9,0.2,1.3c0.2,0.4,0.4,0.7,0.6,1
		c0.3,0.3,0.6,0.5,1,0.6c0.4,0.2,0.8,0.2,1.2,0.2c0.4,0,0.8-0.1,1.2-0.2c0.4-0.1,0.7-0.3,1-0.6c0.3-0.3,0.5-0.6,0.7-1
		C23.1,56.3,23.2,55.9,23.2,55.4z"/>
	<linearGradient id="SVGID_7_" gradientUnits="userSpaceOnUse" x1="32.1504" y1="60.3309" x2="32.1504" y2="50.5352">
		<stop  offset="0" style="stop-color:#C87733"/>
		<stop  offset="1" style="stop-color:#B14330"/>
	</linearGradient>
	<path class="st6" d="M36.9,55.4c0,0.2-0.1,0.4-0.2,0.5c-0.1,0.1-0.3,0.2-0.5,0.2h-6.9c0.1,0.8,0.4,1.4,1,1.9s1.2,0.7,2,0.7
		c0.6,0,1-0.1,1.4-0.2c0.4-0.2,0.7-0.4,1-0.8c0.2-0.2,0.4-0.3,0.6-0.4c0.2-0.1,0.4,0,0.6,0.1c0.2,0.1,0.3,0.3,0.3,0.6
		c0,0.2,0,0.4-0.2,0.6c-0.5,0.6-1,1-1.7,1.3c-0.7,0.3-1.4,0.4-2.2,0.4c-0.7,0-1.3-0.1-1.9-0.4c-0.6-0.2-1.1-0.6-1.5-1
		c-0.4-0.4-0.8-0.9-1-1.5c-0.2-0.6-0.4-1.3-0.4-2c0-0.7,0.1-1.4,0.4-2c0.2-0.6,0.6-1.1,1-1.5c0.4-0.4,0.9-0.7,1.5-1
		c0.6-0.2,1.2-0.3,1.9-0.3c0.7,0,1.3,0.1,1.9,0.3c0.6,0.2,1.1,0.6,1.5,1c0.4,0.4,0.7,0.9,1,1.5C36.8,54,36.9,54.7,36.9,55.4z
		 M35.1,54.7c-0.1-0.8-0.4-1.4-0.9-1.9c-0.5-0.4-1.2-0.7-1.9-0.7c-0.8,0-1.4,0.2-2,0.7c-0.5,0.4-0.9,1.1-1,1.9H35.1z"/>
	<linearGradient id="SVGID_8_" gradientUnits="userSpaceOnUse" x1="39.9739" y1="60.2291" x2="39.9739" y2="45.5267">
		<stop  offset="0" style="stop-color:#C87733"/>
		<stop  offset="1" style="stop-color:#B14330"/>
	</linearGradient>
	<path class="st7" d="M40.9,59.3c0,0.3-0.1,0.5-0.3,0.7c-0.2,0.2-0.4,0.3-0.7,0.3c-0.3,0-0.5-0.1-0.6-0.3c-0.2-0.2-0.3-0.4-0.3-0.7
		V46.5c0-0.3,0.1-0.5,0.3-0.7c0.2-0.2,0.4-0.3,0.6-0.3c0.3,0,0.5,0.1,0.7,0.3c0.2,0.2,0.3,0.4,0.3,0.7V59.3z"/>
	<linearGradient id="SVGID_9_" gradientUnits="userSpaceOnUse" x1="44.7101" y1="60.2291" x2="44.7101" y2="46.1106">
		<stop  offset="0" style="stop-color:#C87733"/>
		<stop  offset="1" style="stop-color:#B14330"/>
	</linearGradient>
	<path class="st8" d="M43.4,47.3c0-0.3,0.1-0.6,0.4-0.9c0.2-0.2,0.5-0.3,0.9-0.3s0.6,0.1,0.9,0.3c0.2,0.2,0.4,0.5,0.4,0.9
		c0,0.3-0.1,0.6-0.4,0.9c-0.2,0.2-0.5,0.3-0.9,0.3s-0.6-0.1-0.9-0.3C43.6,47.9,43.4,47.6,43.4,47.3z M45.6,59.3
		c0,0.3-0.1,0.5-0.3,0.7c-0.2,0.2-0.4,0.3-0.7,0.3c-0.3,0-0.5-0.1-0.6-0.3c-0.2-0.2-0.3-0.4-0.3-0.7v-7.7c0-0.3,0.1-0.5,0.3-0.7
		c0.2-0.2,0.4-0.3,0.6-0.3c0.3,0,0.5,0.1,0.7,0.3c0.2,0.2,0.3,0.4,0.3,0.7V59.3z"/>
	<linearGradient id="SVGID_10_" gradientUnits="userSpaceOnUse" x1="52.0198" y1="60.1291" x2="52.0198" y2="50.737">
		<stop  offset="0" style="stop-color:#C87733"/>
		<stop  offset="1" style="stop-color:#B14330"/>
	</linearGradient>
	<path class="st9" d="M53.5,52.5H49c-0.2,0-0.4-0.1-0.6-0.3c-0.2-0.2-0.3-0.4-0.3-0.6c0-0.3,0.1-0.5,0.3-0.6
		c0.2-0.2,0.4-0.3,0.6-0.3h6.2c0.3,0,0.5,0.1,0.7,0.3c0.2,0.2,0.3,0.4,0.3,0.6v0c0,0.2,0,0.4-0.1,0.5c-0.1,0.1-0.2,0.3-0.3,0.5
		l-5.4,5.8h4.9c0.2,0,0.4,0.1,0.6,0.3c0.2,0.2,0.3,0.4,0.3,0.6c0,0.2-0.1,0.4-0.3,0.6c-0.2,0.2-0.4,0.3-0.6,0.3h-6.6
		c-0.3,0-0.5-0.1-0.7-0.3c-0.2-0.2-0.3-0.4-0.3-0.6v0c0-0.2,0-0.4,0.1-0.5c0.1-0.1,0.2-0.3,0.3-0.5L53.5,52.5z"/>
	<linearGradient id="SVGID_11_" gradientUnits="userSpaceOnUse" x1="62.9506" y1="60.3309" x2="62.9506" y2="50.5352">
		<stop  offset="0" style="stop-color:#C87733"/>
		<stop  offset="1" style="stop-color:#B14330"/>
	</linearGradient>
	<path class="st10" d="M66.1,58.7c-0.2,0.3-0.4,0.5-0.6,0.7c-0.2,0.2-0.5,0.4-0.8,0.5c-0.3,0.1-0.6,0.2-0.9,0.3
		c-0.3,0.1-0.7,0.1-1,0.1c-0.6,0-1.3-0.1-1.8-0.4c-0.6-0.2-1.1-0.6-1.5-1c-0.4-0.4-0.8-0.9-1-1.5c-0.3-0.6-0.4-1.3-0.4-2
		c0-0.7,0.1-1.4,0.4-2c0.3-0.6,0.6-1.1,1-1.5c0.4-0.4,0.9-0.7,1.5-1c0.6-0.2,1.2-0.3,1.8-0.3c0.3,0,0.6,0,1,0.1
		c0.3,0.1,0.6,0.2,0.9,0.3c0.3,0.1,0.6,0.3,0.8,0.5c0.2,0.2,0.4,0.4,0.6,0.7v-0.6c0-0.3,0.1-0.5,0.3-0.7c0.2-0.2,0.4-0.3,0.6-0.3
		c0.3,0,0.5,0.1,0.7,0.3c0.2,0.2,0.3,0.4,0.3,0.7v7.7c0,0.3-0.1,0.5-0.3,0.7c-0.2,0.2-0.4,0.3-0.7,0.3c-0.3,0-0.5-0.1-0.6-0.3
		c-0.2-0.2-0.3-0.4-0.3-0.7V58.7z M66,55.4c0-0.5-0.1-0.9-0.3-1.3c-0.2-0.4-0.4-0.7-0.7-1c-0.3-0.3-0.6-0.4-1-0.6
		c-0.4-0.1-0.7-0.2-1.1-0.2c-0.4,0-0.8,0.1-1.2,0.2c-0.4,0.1-0.7,0.4-1,0.6c-0.3,0.3-0.5,0.6-0.7,1c-0.2,0.4-0.2,0.8-0.2,1.3
		c0,0.5,0.1,0.9,0.2,1.3c0.2,0.4,0.4,0.7,0.7,1c0.3,0.3,0.6,0.5,1,0.6c0.4,0.2,0.8,0.2,1.2,0.2c0.4,0,0.8-0.1,1.2-0.2
		c0.4-0.1,0.7-0.3,1-0.6c0.3-0.3,0.5-0.6,0.7-1C66,56.3,66,55.9,66,55.4z"/>
	<linearGradient id="SVGID_12_" gradientUnits="userSpaceOnUse" x1="71.7294" y1="60.2291" x2="71.7294" y2="45.5267">
		<stop  offset="0" style="stop-color:#C87733"/>
		<stop  offset="1" style="stop-color:#B14330"/>
	</linearGradient>
	<path class="st11" d="M72.6,59.3c0,0.3-0.1,0.5-0.3,0.7c-0.2,0.2-0.4,0.3-0.7,0.3c-0.3,0-0.5-0.1-0.6-0.3c-0.2-0.2-0.3-0.4-0.3-0.7
		V46.5c0-0.3,0.1-0.5,0.3-0.7c0.2-0.2,0.4-0.3,0.6-0.3c0.3,0,0.5,0.1,0.7,0.3c0.2,0.2,0.3,0.4,0.3,0.7V59.3z"/>
	<linearGradient id="SVGID_13_" gradientUnits="userSpaceOnUse" x1="79.6752" y1="60.3309" x2="79.6752" y2="50.6352">
		<stop  offset="0" style="stop-color:#C87733"/>
		<stop  offset="1" style="stop-color:#B14330"/>
	</linearGradient>
	<path class="st12" d="M82,58.7c-0.1,0.3-0.3,0.5-0.6,0.7c-0.2,0.2-0.5,0.4-0.7,0.5s-0.5,0.2-0.8,0.3c-0.3,0.1-0.6,0.1-0.8,0.1
		c-1.2,0-2.1-0.4-2.7-1.1c-0.6-0.7-0.9-1.7-0.9-3.1v-4.6c0-0.3,0.1-0.5,0.3-0.7c0.2-0.2,0.4-0.3,0.7-0.3c0.3,0,0.5,0.1,0.6,0.3
		c0.2,0.2,0.3,0.4,0.3,0.7V56c0,0.8,0.2,1.4,0.6,1.8c0.4,0.4,0.9,0.7,1.5,0.7c0.3,0,0.7,0,1-0.1c0.3-0.1,0.6-0.3,0.8-0.5
		c0.2-0.2,0.4-0.5,0.6-0.8c0.2-0.3,0.2-0.8,0.2-1.3v-4.2c0-0.3,0.1-0.5,0.3-0.7c0.2-0.2,0.4-0.3,0.7-0.3c0.3,0,0.5,0.1,0.6,0.3
		c0.2,0.2,0.3,0.4,0.3,0.7v7.7c0,0.3-0.1,0.5-0.3,0.7c-0.2,0.2-0.4,0.3-0.6,0.3c-0.3,0-0.5-0.1-0.7-0.3c-0.2-0.2-0.3-0.4-0.3-0.7
		V58.7z"/>
	<linearGradient id="SVGID_14_" gradientUnits="userSpaceOnUse" x1="90.9582" y1="60.2291" x2="90.9582" y2="50.5352">
		<stop  offset="0" style="stop-color:#C87733"/>
		<stop  offset="1" style="stop-color:#B14330"/>
	</linearGradient>
	<path class="st13" d="M88.6,52.1c0.1-0.3,0.3-0.5,0.5-0.7c0.2-0.2,0.5-0.4,0.7-0.5c0.3-0.1,0.5-0.2,0.8-0.3
		c0.3-0.1,0.6-0.1,0.8-0.1c1.2,0,2.1,0.4,2.7,1.1c0.6,0.7,0.9,1.7,0.9,3.1v4.6c0,0.3-0.1,0.5-0.3,0.7c-0.2,0.2-0.4,0.3-0.7,0.3
		c-0.3,0-0.5-0.1-0.6-0.3c-0.2-0.2-0.3-0.4-0.3-0.7v-4.5c0-0.8-0.2-1.4-0.6-1.8c-0.4-0.4-0.9-0.7-1.5-0.7c-0.3,0-0.7,0-1,0.1
		c-0.3,0.1-0.6,0.3-0.8,0.5c-0.2,0.2-0.4,0.5-0.6,0.8c-0.2,0.3-0.2,0.8-0.2,1.3v4.2c0,0.3-0.1,0.5-0.3,0.7c-0.2,0.2-0.4,0.3-0.7,0.3
		c-0.3,0-0.5-0.1-0.6-0.3c-0.2-0.2-0.3-0.4-0.3-0.7v-7.7c0-0.3,0.1-0.5,0.3-0.7c0.2-0.2,0.4-0.3,0.6-0.3c0.3,0,0.5,0.1,0.7,0.3
		c0.2,0.2,0.3,0.4,0.3,0.7V52.1z"/>
	<linearGradient id="SVGID_15_" gradientUnits="userSpaceOnUse" x1="102.3421" y1="60.3309" x2="102.3421" y2="50.5352">
		<stop  offset="0" style="stop-color:#C87733"/>
		<stop  offset="1" style="stop-color:#B14330"/>
	</linearGradient>
	<path class="st14" d="M102.3,60.3c-0.7,0-1.3-0.1-1.9-0.4c-0.6-0.2-1.1-0.6-1.6-1c-0.4-0.4-0.8-0.9-1.1-1.5c-0.3-0.6-0.4-1.3-0.4-2
		c0-0.7,0.1-1.4,0.4-2c0.3-0.6,0.6-1.1,1.1-1.5c0.4-0.4,1-0.7,1.6-1c0.6-0.2,1.2-0.3,1.9-0.3c0.7,0,1.3,0.1,1.9,0.3
		c0.6,0.2,1.1,0.6,1.6,1c0.4,0.4,0.8,0.9,1.1,1.5c0.3,0.6,0.4,1.3,0.4,2c0,0.8-0.1,1.4-0.4,2c-0.3,0.6-0.6,1.1-1.1,1.5
		c-0.4,0.4-1,0.8-1.6,1C103.6,60.2,103,60.3,102.3,60.3z M102.3,58.6c0.4,0,0.8-0.1,1.2-0.2c0.4-0.1,0.7-0.4,1-0.6
		c0.3-0.3,0.5-0.6,0.7-1c0.2-0.4,0.3-0.8,0.3-1.3c0-0.5-0.1-0.9-0.3-1.3c-0.2-0.4-0.4-0.7-0.7-1c-0.3-0.3-0.6-0.5-1-0.6
		s-0.8-0.2-1.2-0.2c-0.4,0-0.8,0.1-1.2,0.2c-0.4,0.1-0.7,0.3-1,0.6c-0.3,0.3-0.5,0.6-0.7,1c-0.2,0.4-0.2,0.8-0.2,1.3
		c0,0.5,0.1,0.9,0.2,1.3c0.2,0.4,0.4,0.7,0.7,1c0.3,0.3,0.6,0.5,1,0.6C101.5,58.5,101.9,58.6,102.3,58.6z"/>
</g>
</svg>
