<?xml version="1.0" encoding="utf-8"?>
<!-- Generator: Adobe Illustrator 22.1.0, SVG Export Plug-In . SVG Version: 6.00 Build 0)  -->
<svg version="1.1" id="Camada_1" xmlns="http://www.w3.org/2000/svg" xmlns:xlink="http://www.w3.org/1999/xlink" x="0px" y="0px"
	 viewBox="0 0 724.2 182.3" style="enable-background:new 0 0 724.2 182.3;" xml:space="preserve">
<style type="text/css">
	.st0{fill:#FFFFFF;}
	.st1{enable-background:new    ;}
</style>
<g>
	<g>
		<path class="st0" d="M164.9,73.1c-2.7,1.1-4.5,1.8-6.4,2.6c-18.1,8.2-36.3,16.4-54.4,24.8c-3,1.4-5.4,1.4-8.4,0
			c-19.4-8.9-38.9-17.6-58.4-26.4c-1.3-0.6-2.5-1.3-4.3-2.2c8.3-3.7,16.1-7.1,23.8-10.5c13.8-6.1,27.7-12.1,41.5-18.3
			c2.4-1.1,4.4-1,6.8,0.1c20.1,9.1,40.3,18,60.5,26.9c1.9,0.9,2.7,1.9,2.6,4c-0.1,11.1,0,22.1-0.1,33.2c0,2.3,0.2,4,2.4,5.5
			c2.3,1.6,3.2,4.1,2.2,6.5c-2.3-0.9-4.3-2.5-6.3-2.4c-1.9,0.1-3.7,1.9-5.6,3c-1.5-2.2-1.3-5,1.5-7c2.1-1.5,2.5-3.2,2.5-5.5
			c-0.1-10,0-19.9,0-29.9C164.9,76.3,164.9,75.2,164.9,73.1z"/>
		<path class="st0" d="M59.6,88.7C67,92,73.7,95,80.5,98.1c5.4,2.4,10.7,4.8,16,7.3c2.4,1.1,4.4,1.1,6.8,0
			c10.1-4.7,20.3-9.3,30.4-13.9c1.2-0.5,2.4-1,4.1-1.7c0.1,1.7,0.2,2.9,0.2,4.2c0,8-0.2,16.1,0.1,24.1c0.1,3.8-1.3,6.4-4,8.7
			c-7.6,6.6-16.7,9.9-26.4,11.5c-14.3,2.4-27.6-0.7-40-8.2c-1.5-0.9-2.8-2.2-4.3-3.3c-2.9-2.3-4.2-5.1-4.1-9
			c0.3-8.2,0.1-16.3,0.1-24.5C59.6,92,59.6,90.7,59.6,88.7z"/>
		<path class="st0" d="M166.8,148.9c-6.8,0-7.2,0-6.7-7c0.4-6.2,1.7-12.3,2.8-18.4c0.4-2.1,1.3-3.9,3.9-3.9c2.6-0.1,3.7,1.7,4.1,3.8
			c1.1,6.2,2.4,12.5,2.8,18.7C174.2,148.8,173.7,148.9,166.8,148.9z"/>
	</g>
	<g class="st1">
		<path class="st0" d="M230,66.6c1.1,0,2,0.4,2.8,1.1c0.8,0.8,1.2,1.7,1.2,2.8c0,1.1-0.4,2.1-1.2,2.9c-0.8,0.8-1.7,1.1-2.8,1.1
			h-24.4v19.9h18.6c1.1,0,2,0.4,2.8,1.1c0.8,0.8,1.2,1.7,1.2,2.8c0,1.1-0.4,2.1-1.2,2.9c-0.8,0.8-1.7,1.1-2.8,1.1h-18.6v22.9
			c0,1.2-0.4,2.2-1.2,3c-0.8,0.8-1.8,1.2-3,1.2c-1.2,0-2.2-0.4-3-1.2c-0.8-0.8-1.2-1.8-1.2-3V71c0-1.2,0.4-2.2,1.3-3.1
			c0.8-0.8,1.8-1.3,3-1.3H230z"/>
		<path class="st0" d="M241.5,71.2c0-1.6,0.6-2.9,1.7-3.8c1.1-1,2.5-1.5,4-1.5c1.6,0,2.9,0.5,4,1.5c1.1,1,1.7,2.3,1.7,3.8
			c0,1.6-0.6,2.9-1.7,3.8c-1.1,1-2.5,1.5-4,1.5c-1.6,0-2.9-0.5-4-1.5C242.1,74.1,241.5,72.8,241.5,71.2z M251.4,125.3
			c0,1.1-0.4,2.1-1.2,2.9c-0.8,0.8-1.8,1.2-3,1.2c-1.1,0-2.1-0.4-2.9-1.2c-0.8-0.8-1.2-1.8-1.2-2.9V90.4c0-1.1,0.4-2.1,1.2-2.9
			c0.8-0.8,1.7-1.2,2.9-1.2c1.2,0,2.2,0.4,3,1.2c0.8,0.8,1.2,1.8,1.2,2.9V125.3z"/>
		<path class="st0" d="M298.2,67.4c0-1.1,0.4-2.1,1.2-2.9c0.8-0.8,1.8-1.2,3-1.2c1.1,0,2.1,0.4,2.9,1.2c0.8,0.8,1.2,1.8,1.2,2.9
			v57.8c0,1.1-0.4,2.1-1.2,2.9c-0.8,0.8-1.8,1.2-2.9,1.2c-1.2,0-2.2-0.4-3-1.2c-0.8-0.8-1.2-1.8-1.2-2.9v-2.8
			c-0.7,1.2-1.6,2.3-2.7,3.2c-1.1,0.9-2.2,1.7-3.5,2.3c-1.3,0.6-2.7,1.1-4.2,1.4c-1.5,0.3-2.9,0.5-4.4,0.5c-2.9,0-5.6-0.5-8.2-1.6
			c-2.6-1.1-4.9-2.5-6.8-4.4c-2-1.9-3.5-4.2-4.7-6.9c-1.1-2.7-1.7-5.8-1.7-9.1c0-3.4,0.6-6.4,1.7-9.1c1.1-2.7,2.7-5,4.6-6.9
			c2-1.9,4.2-3.4,6.8-4.4c2.6-1,5.3-1.5,8.2-1.5c3.1,0,6,0.6,8.7,1.8c2.7,1.2,4.8,3,6.2,5.4V67.4z M298.1,107.7c0-2.2-0.4-4.2-1.2-6
			c-0.8-1.8-1.9-3.2-3.2-4.3c-1.3-1.1-2.8-2-4.5-2.6c-1.7-0.6-3.4-0.9-5.1-0.9c-1.9,0-3.7,0.3-5.4,1c-1.7,0.7-3.1,1.6-4.3,2.8
			c-1.2,1.2-2.2,2.7-2.9,4.3c-0.7,1.7-1.1,3.6-1.1,5.7c0,2.1,0.4,4,1.1,5.7s1.7,3.2,2.9,4.4c1.2,1.2,2.6,2.2,4.3,2.9
			c1.7,0.7,3.5,1,5.4,1c1.9,0,3.7-0.3,5.3-1c1.7-0.6,3.2-1.6,4.5-2.8c1.3-1.2,2.3-2.7,3.1-4.4C297.7,111.9,298.1,109.9,298.1,107.7z
			"/>
		<path class="st0" d="M359.8,107.7c0,1-0.3,1.8-1,2.4c-0.7,0.6-1.4,0.9-2.3,0.9h-31.1c0.5,3.6,2,6.4,4.5,8.4
			c2.5,2.1,5.6,3.1,9.2,3.1c2.5,0,4.6-0.3,6.2-1c1.6-0.7,3.1-1.8,4.6-3.4c0.8-0.8,1.7-1.4,2.7-1.6c1-0.2,2-0.1,2.8,0.5
			c0.8,0.7,1.3,1.5,1.5,2.5c0.1,1-0.1,1.9-0.8,2.6c-2.1,2.7-4.6,4.6-7.6,5.9c-3,1.3-6.2,1.9-9.7,1.9c-3,0-5.8-0.5-8.5-1.6
			c-2.6-1.1-4.9-2.5-6.9-4.5c-2-1.9-3.5-4.3-4.6-7c-1.1-2.7-1.7-5.8-1.7-9.1c0-3.3,0.6-6.3,1.7-9.1c1.1-2.7,2.7-5,4.6-6.9
			c2-1.9,4.3-3.4,6.9-4.4s5.4-1.5,8.5-1.5s5.8,0.5,8.4,1.5s4.8,2.5,6.7,4.4c1.9,1.9,3.3,4.2,4.4,6.9
			C359.3,101.4,359.8,104.4,359.8,107.7z M351.7,104.5c-0.5-3.6-1.9-6.3-4.2-8.3c-2.3-2-5.2-3-8.6-3c-3.5,0-6.5,1-9,3
			c-2.5,2-4,4.8-4.4,8.3H351.7z"/>
		<path class="st0" d="M377.9,125.3c0,1.1-0.4,2.1-1.2,2.9c-0.8,0.8-1.8,1.2-3,1.2c-1.1,0-2.1-0.4-2.9-1.2c-0.8-0.8-1.2-1.8-1.2-2.9
			V67.4c0-1.1,0.4-2.1,1.2-2.9c0.8-0.8,1.7-1.2,2.9-1.2c1.2,0,2.2,0.4,3,1.2c0.8,0.8,1.2,1.8,1.2,2.9V125.3z"/>
		<path class="st0" d="M389.3,71.2c0-1.6,0.6-2.9,1.7-3.8c1.1-1,2.5-1.5,4-1.5c1.6,0,2.9,0.5,4,1.5c1.1,1,1.7,2.3,1.7,3.8
			c0,1.6-0.6,2.9-1.7,3.8c-1.1,1-2.5,1.5-4,1.5c-1.6,0-2.9-0.5-4-1.5C389.9,74.1,389.3,72.8,389.3,71.2z M399.2,125.3
			c0,1.1-0.4,2.1-1.2,2.9c-0.8,0.8-1.8,1.2-3,1.2c-1.1,0-2.1-0.4-2.9-1.2c-0.8-0.8-1.2-1.8-1.2-2.9V90.4c0-1.1,0.4-2.1,1.2-2.9
			c0.8-0.8,1.8-1.2,2.9-1.2c1.2,0,2.2,0.4,3,1.2c0.8,0.8,1.2,1.8,1.2,2.9V125.3z"/>
		<path class="st0" d="M434.5,94.6h-20.2c-1.1,0-2-0.4-2.8-1.1c-0.8-0.8-1.2-1.7-1.2-2.8c0-1.1,0.4-2.1,1.2-2.9
			c0.8-0.8,1.7-1.1,2.8-1.1h28.1c1.3,0,2.4,0.4,3.3,1.1c0.9,0.8,1.3,1.7,1.3,2.8v0.2c0,0.8-0.2,1.6-0.5,2.3
			c-0.3,0.7-0.8,1.4-1.5,2.2l-24.1,25.9H443c1.1,0,2,0.4,2.8,1.1c0.8,0.8,1.2,1.7,1.2,2.9c0,1.1-0.4,2-1.2,2.8
			c-0.8,0.8-1.7,1.1-2.8,1.1h-29.5c-1.3,0-2.4-0.4-3.3-1.1c-0.9-0.8-1.3-1.7-1.3-2.8v-0.2c0-0.8,0.2-1.6,0.5-2.3
			c0.3-0.7,0.8-1.4,1.5-2.2L434.5,94.6z"/>
		<path class="st0" d="M491.2,122.5c-0.7,1.2-1.6,2.3-2.7,3.2s-2.3,1.7-3.6,2.3s-2.7,1.1-4.2,1.4c-1.5,0.3-2.9,0.5-4.4,0.5
			c-2.9,0-5.6-0.5-8.2-1.6c-2.6-1.1-4.9-2.5-6.8-4.4c-2-1.9-3.5-4.2-4.7-6.9c-1.1-2.7-1.7-5.8-1.7-9.1c0-3.4,0.6-6.4,1.7-9.1
			s2.7-5,4.7-6.9c2-1.9,4.2-3.4,6.8-4.4c2.6-1,5.3-1.5,8.2-1.5c1.4,0,2.9,0.2,4.4,0.5c1.5,0.3,2.9,0.8,4.2,1.4
			c1.3,0.6,2.5,1.4,3.6,2.3s2,2,2.7,3.2v-2.6c0-1.1,0.4-2.1,1.2-2.9c0.8-0.8,1.7-1.2,2.9-1.2c1.2,0,2.2,0.4,3,1.2
			c0.8,0.8,1.2,1.8,1.2,2.9v34.9c0,1.1-0.4,2.1-1.2,2.9c-0.8,0.8-1.8,1.2-3,1.2c-1.1,0-2.1-0.4-2.9-1.2c-0.8-0.8-1.2-1.8-1.2-2.9
			V122.5z M491.1,107.7c0-2.2-0.4-4.2-1.2-6c-0.8-1.8-1.9-3.2-3.2-4.3c-1.3-1.1-2.8-2-4.5-2.6c-1.7-0.6-3.4-0.9-5.1-0.9
			c-1.9,0-3.7,0.3-5.4,1c-1.7,0.7-3.1,1.6-4.3,2.8c-1.2,1.2-2.2,2.7-2.9,4.3c-0.7,1.7-1.1,3.6-1.1,5.7c0,2.1,0.4,4,1.1,5.7
			c0.7,1.7,1.7,3.2,2.9,4.4c1.2,1.2,2.7,2.2,4.3,2.9c1.7,0.7,3.5,1,5.4,1c1.9,0,3.7-0.3,5.3-1s3.2-1.6,4.5-2.8
			c1.3-1.2,2.3-2.7,3.1-4.4C490.7,111.9,491.1,109.9,491.1,107.7z"/>
		<path class="st0" d="M520.8,125.3c0,1.1-0.4,2.1-1.2,2.9c-0.8,0.8-1.8,1.2-3,1.2c-1.1,0-2.1-0.4-2.9-1.2c-0.8-0.8-1.2-1.8-1.2-2.9
			V67.4c0-1.1,0.4-2.1,1.2-2.9c0.8-0.8,1.7-1.2,2.9-1.2c1.2,0,2.2,0.4,3,1.2c0.8,0.8,1.2,1.8,1.2,2.9V125.3z"/>
		<path class="st0" d="M563.1,122.6c-0.7,1.3-1.5,2.4-2.5,3.3c-1,0.9-2.1,1.7-3.3,2.3c-1.2,0.6-2.5,1-3.8,1.3s-2.5,0.4-3.7,0.4
			c-5.3,0-9.4-1.6-12.1-4.9c-2.8-3.3-4.2-7.9-4.2-13.8V90.4c0-1.1,0.4-2.1,1.2-2.9c0.8-0.8,1.8-1.2,3-1.2c1.1,0,2.1,0.4,2.9,1.2
			c0.8,0.8,1.2,1.8,1.2,2.9v20.2c0,3.6,0.8,6.3,2.5,8.3c1.7,2,3.9,2.9,6.8,2.9c1.5,0,3-0.2,4.4-0.7c1.4-0.5,2.7-1.2,3.8-2.1
			c1.1-1,2-2.2,2.7-3.8c0.7-1.6,1-3.5,1-5.7V90.4c0-1.1,0.4-2.1,1.2-2.9c0.8-0.8,1.8-1.2,3-1.2c1.1,0,2.1,0.4,2.9,1.2
			c0.8,0.8,1.2,1.8,1.2,2.9v34.9c0,1.1-0.4,2.1-1.2,2.9c-0.8,0.8-1.8,1.2-2.9,1.2c-1.2,0-2.2-0.4-3-1.2c-0.8-0.8-1.2-1.8-1.2-2.9
			V122.6z"/>
		<path class="st0" d="M592.6,93c0.6-1.3,1.4-2.4,2.4-3.3c1-0.9,2.1-1.7,3.3-2.3c1.2-0.6,2.5-1,3.8-1.3s2.5-0.4,3.7-0.4
			c5.3,0,9.4,1.6,12.1,4.9c2.8,3.3,4.2,7.9,4.2,13.8v20.7c0,1.1-0.4,2.1-1.2,2.9c-0.8,0.8-1.8,1.2-3,1.2c-1.1,0-2.1-0.4-2.9-1.2
			s-1.2-1.8-1.2-2.9v-20.2c0-3.6-0.8-6.3-2.5-8.3c-1.7-2-3.9-2.9-6.8-2.9c-1.5,0-3,0.2-4.4,0.7c-1.4,0.5-2.7,1.2-3.8,2.1
			c-1.1,1-2,2.2-2.7,3.8c-0.7,1.6-1,3.5-1,5.7v19.1c0,1.1-0.4,2.1-1.2,2.9c-0.8,0.8-1.8,1.2-3,1.2c-1.1,0-2.1-0.4-2.9-1.2
			c-0.8-0.8-1.2-1.8-1.2-2.9V90.4c0-1.1,0.4-2.1,1.2-2.9c0.8-0.8,1.8-1.2,2.9-1.2c1.2,0,2.2,0.4,3,1.2c0.8,0.8,1.2,1.8,1.2,2.9V93z"
			/>
		<path class="st0" d="M654.4,129.9c-3,0-5.9-0.5-8.6-1.6c-2.7-1.1-5-2.5-7-4.5c-2-1.9-3.6-4.3-4.8-7s-1.8-5.8-1.8-9.1
			c0-3.3,0.6-6.3,1.8-9.1s2.8-5,4.8-6.9c2-1.9,4.3-3.4,7-4.4c2.7-1,5.5-1.5,8.6-1.5c3,0,5.9,0.5,8.6,1.5c2.7,1,5,2.5,7.1,4.4
			c2,1.9,3.6,4.2,4.8,6.9s1.8,5.7,1.8,9.1c0,3.4-0.6,6.4-1.8,9.1s-2.8,5-4.8,7c-2,1.9-4.4,3.4-7.1,4.5
			C660.3,129.4,657.4,129.9,654.4,129.9z M654.4,121.9c1.9,0,3.7-0.3,5.3-1c1.7-0.7,3.2-1.6,4.4-2.9c1.3-1.2,2.3-2.7,3-4.5
			c0.8-1.8,1.1-3.7,1.1-5.9c0-2.1-0.4-4-1.1-5.7c-0.8-1.7-1.8-3.2-3-4.4c-1.3-1.2-2.7-2.1-4.4-2.8c-1.7-0.6-3.5-1-5.3-1
			c-1.9,0-3.7,0.3-5.4,1c-1.7,0.6-3.2,1.6-4.4,2.8c-1.3,1.2-2.3,2.7-3,4.4c-0.7,1.7-1.1,3.6-1.1,5.7c0,2.2,0.4,4.1,1.1,5.9
			c0.7,1.8,1.7,3.2,3,4.5c1.3,1.2,2.7,2.2,4.4,2.9C650.7,121.6,652.5,121.9,654.4,121.9z"/>
	</g>
</g>
</svg>
