<?xml version="1.0" encoding="utf-8"?>
<!-- Generator: Adobe Illustrator 22.1.0, SVG Export Plug-In . SVG Version: 6.00 Build 0)  -->
<svg version="1.1" id="Camada_1" xmlns="http://www.w3.org/2000/svg" xmlns:xlink="http://www.w3.org/1999/xlink" x="0px" y="0px"
	 viewBox="0 0 60 45" style="enable-background:new 0 0 60 45;" xml:space="preserve">
<style type="text/css">
	.st0{fill:url(#SVGID_1_);}
	.st1{fill:url(#SVGID_2_);}
	.st2{fill:url(#SVGID_3_);}
</style>
<g>
	<linearGradient id="SVGID_1_" gradientUnits="userSpaceOnUse" x1="29.6791" y1="2.6904" x2="29.6791" y2="32.9848">
		<stop  offset="0" style="stop-color:#C87733"/>
		<stop  offset="1" style="stop-color:#B14330"/>
	</linearGradient>
	<path class="st0" d="M53.8,14.7c-1.1,0.4-1.8,0.7-2.5,1c-7.1,3.2-14.2,6.4-21.2,9.7c-1.2,0.5-2.1,0.5-3.3,0
		C19.2,21.9,11.6,18.5,4,15.1c-0.5-0.2-1-0.5-1.7-0.9c3.2-1.4,6.3-2.8,9.3-4.1C17,7.8,22.4,5.4,27.8,3c0.9-0.4,1.7-0.4,2.7,0
		c7.8,3.6,15.7,7,23.6,10.5c0.7,0.4,1.1,0.7,1,1.6c0,4.3,0,8.6,0,13c0,0.9,0.1,1.6,0.9,2.1c0.9,0.6,1.2,1.6,0.9,2.5
		c-0.9-0.4-1.7-1-2.5-0.9c-0.7,0-1.4,0.7-2.2,1.2c-0.6-0.9-0.5-2,0.6-2.7c0.8-0.6,1-1.2,1-2.1c0-3.9,0-7.8,0-11.7
		C53.8,16,53.8,15.5,53.8,14.7z"/>
	<linearGradient id="SVGID_2_" gradientUnits="userSpaceOnUse" x1="27.9794" y1="20.8009" x2="27.9794" y2="40.4815">
		<stop  offset="0" style="stop-color:#C87733"/>
		<stop  offset="1" style="stop-color:#B14330"/>
	</linearGradient>
	<path class="st1" d="M12.7,20.8c2.9,1.3,5.5,2.5,8.2,3.7c2.1,0.9,4.2,1.9,6.2,2.9c0.9,0.4,1.7,0.4,2.7,0c3.9-1.8,7.9-3.6,11.9-5.4
		c0.5-0.2,0.9-0.4,1.6-0.7c0,0.7,0.1,1.1,0.1,1.6c0,3.1-0.1,6.3,0,9.4c0,1.5-0.5,2.5-1.6,3.4c-3,2.6-6.5,3.9-10.3,4.5
		c-5.6,0.9-10.8-0.3-15.6-3.2c-0.6-0.4-1.1-0.9-1.7-1.3c-1.1-0.9-1.6-2-1.6-3.5c0.1-3.2,0-6.4,0-9.6C12.7,22.1,12.7,21.6,12.7,20.8z
		"/>
	<linearGradient id="SVGID_3_" gradientUnits="userSpaceOnUse" x1="54.6105" y1="32.8661" x2="54.6105" y2="44.3096">
		<stop  offset="0" style="stop-color:#C87733"/>
		<stop  offset="1" style="stop-color:#B14330"/>
	</linearGradient>
	<path class="st2" d="M54.6,44.3c-2.7,0-2.8,0-2.6-2.7c0.2-2.4,0.7-4.8,1.1-7.2c0.2-0.8,0.5-1.5,1.5-1.5c1,0,1.4,0.7,1.6,1.5
		c0.4,2.4,0.9,4.9,1.1,7.3C57.5,44.3,57.3,44.3,54.6,44.3z"/>
</g>
</svg>
