<?xml version="1.0" encoding="utf-8"?>
<!-- Generator: Adobe Illustrator 22.1.0, SVG Export Plug-In . SVG Version: 6.00 Build 0)  -->
<svg version="1.1" id="Camada_1" xmlns="http://www.w3.org/2000/svg" xmlns:xlink="http://www.w3.org/1999/xlink" x="0px" y="0px"
	 viewBox="0 0 152 152" style="enable-background:new 0 0 152 152;" xml:space="preserve">
<style type="text/css">
	.st0{fill:#585858;}
</style>
<g>
	<g>
		<path class="st0" d="M132.3,62.2l-9.1-1.1c-0.7-2-0.9-3.9-1.8-5.8l6.9-8c3.3-4.1,3.2-9.9-0.5-13.6l-5.6-5.7
			c-3.7-3.7-9.5-4-13.6-0.7l-8,6.6c-1.8-0.9-3.8-1.7-5.8-2.4l-1-8.9c-0.5-5.2-4.9-7.8-10.1-7.8h-8.1c-5.2,0-9.6,2.6-10.1,7.8
			l-1.1,9.6c-2,0.7-3.9,1.1-5.8,2.1l-8-6.7c-4.1-3.3-9.9-3.1-13.6,0.6l-5.7,5.7c-3.7,3.7-4,9.5-0.7,13.6l6.6,8
			c-0.9,1.8-1.7,3.8-2.4,5.8l-11.7,1c-5.2,0.5-10.5,4.9-10.5,10.1v8.1c0,5.2,5.3,9.6,10.5,10.1l11,1.1c0.7,2,1.8,3.9,2.8,5.8l-6.4,8
			c-3.3,4.1-2.9,9.9,0.8,13.6l5.8,5.7c3.7,3.7,9.6,4,13.6,0.7l8-6.6c1.8,0.9,3.8,1.7,5.8,2.4l1.1,10.7c0.5,5.2,4.9,9.5,10.1,9.5h8.1
			c5.2,0,9.6-4.3,10.1-9.5l1.1-10.5c2-0.7,3.9-1.5,5.8-2.5l8,6.5c4.1,3.3,9.9,3,13.6-0.7l5.7-5.7c3.7-3.7,4-9.6,0.7-13.6l-6.6-8
			c0.9-1.8,1.7-3.8,2.4-5.8l7.9-1.1c5.2-0.5,6.7-4.9,6.7-10.1v-8.1C139.1,67.1,137.5,62.7,132.3,62.2z M133.5,80.4
			c0,1.7,0.5,3.2-1.3,3.4l-11.7,1.3c-1,0.1-1.5,0.7-2.1,1.6c-0.2,0.3-0.1,0.6-0.2,1c-0.9,3.1-2,5.9-3.4,8.5
			c-0.7,1.2-0.5,2.7,0.4,3.8l8,9.8c1.1,1.4,1,3.3-0.2,4.5l-5.7,5.7c-1.2,1.2-3.2,1.3-4.5,0.2l-9.8-8c-0.8-0.7-2-0.9-3-0.6
			c-0.3,0.1-0.6,0.2-0.9,0.4c-2.8,1.5-5.6,2.7-8.5,3.5c-1.3,0.4-2.3,1.5-2.5,2.9l-1.3,13.5c-0.2,1.7-1.6,4-3.4,4h-8.1
			c-1.7,0-3.2-2.3-3.4-4l-1.3-13c-0.1-1-0.7-2.2-1.6-2.8c-0.3-0.2-0.6-0.5-1-0.5c-3.1-0.9-5.9-2.1-8.5-3.6c-1.2-0.7-2.7-0.6-3.8,0.3
			l-9.8,8c-1.4,1.1-3.3,1-4.5-0.2l-5.7-5.7c-1.2-1.2-1.3-3.2-0.2-4.5l8-9.8c0.7-0.8,0.9-2,0.6-3c-0.1-0.3-0.2-0.6-0.4-0.9
			c-1.5-2.8-2.7-5.6-3.5-8.5c-0.4-1.3-1.5-2.3-2.9-2.5l-14.6-1.3c-1.7-0.2-5.1-1.6-5.1-3.4v-8.1c0-1.7,3.3-3.2,5.1-3.4l13.6-1.3
			c1-0.1,2.5-0.7,3-1.6c0.2-0.3,0.6-0.7,0.7-1.1c0.9-3,2.2-5.8,3.6-8.4c0.7-1.2,0.6-2.7-0.3-3.8L35.6,43c-1.1-1.4-1-3.3,0.2-4.5
			l5.7-5.7c1.2-1.2,3.2-1.3,4.5-0.2l9.8,8c0.8,0.7,2,0.9,3,0.6c0.3-0.1,0.6-0.2,0.9-0.4c2.8-1.5,5.6-2.7,8.5-3.5
			c1.3-0.4,2.3-1.5,2.5-2.9L72,22.6c0.2-1.7,1.6-2.3,3.4-2.3h8.1c1.7,0,3.2,0.6,3.4,2.3l1.3,12.2c0.1,1,0.7,1.8,1.6,2.3
			c0.3,0.2,0.6,0.2,1,0.3c3.1,0.9,5.9,2,8.5,3.5c1.2,0.7,2.7,0.5,3.8-0.3l9.8-8c1.4-1.1,3.3-1,4.5,0.2l5.7,5.7
			c1.2,1.2,1.3,3.2,0.2,4.5l-8,9.8c-0.7,0.8-0.9,2-0.6,3c0.1,0.3,0.2,0.6,0.4,0.9c1.5,2.8,2.7,5.6,3.5,8.5c0.4,1.3,1.5,2.3,2.9,2.5
			l10.8,1.3c1.7,0.2,1.3,1.6,1.3,3.4C133.5,72.3,133.5,80.4,133.5,80.4z"/>
		<path class="st0" d="M79.5,52.6c-13.1,0-23.7,10.6-23.7,23.7S66.4,100,79.5,100s23.7-10.6,23.7-23.7S92.6,52.6,79.5,52.6z
			 M79.5,93.3c-9.3,0-17-7.6-17-17c0-9.3,7.6-17,17-17s17,7.6,17,17C96.4,85.7,88.8,93.3,79.5,93.3z"/>
	</g>
</g>
</svg>
