<?xml version="1.0" encoding="utf-8"?>
<!-- Generator: Adobe Illustrator 22.1.0, SVG Export Plug-In . SVG Version: 6.00 Build 0)  -->
<svg version="1.1" id="Camada_1" xmlns="http://www.w3.org/2000/svg" xmlns:xlink="http://www.w3.org/1999/xlink" x="0px" y="0px"
	 viewBox="0 0 546.7 547.4" style="enable-background:new 0 0 546.7 547.4;" xml:space="preserve">
<style type="text/css">
	.st0{fill:#585858;}
</style>
<g>
	<g>
		<g>
			<path class="st0" d="M411.4,179.4c4.5,0,8.1-3.6,8.1-8.1V83.5c0-13.4-10.9-24.3-24.3-24.3H101c-13.4,0-24.3,10.9-24.3,24.3v365.4
				c0,13.4,10.9,24.3,24.3,24.3h294.2c13.4,0,24.3-10.9,24.3-24.3v-59.6c0-4.5-3.6-8.1-8.1-8.1c-4.5,0-8.1,3.6-8.1,8.1v59.6
				c0,4.5-3.6,8.1-8.1,8.1H101c-4.5,0-8.1-3.6-8.1-8.1V83.5c0-4.5,3.6-8.1,8.1-8.1h294.2c4.5,0,8.1,3.6,8.1,8.1v87.9
				C403.3,175.8,407,179.4,411.4,179.4z"/>
		</g>
	</g>
	<g>
		<g>
			<path class="st0" d="M248.1,102.9c-41,0-74.4,33.4-74.4,74.4c0,21.3,9,40.5,23.3,54.1c0.3,0.3,0.6,0.6,0.9,0.8
				c13.2,12.1,30.8,19.5,50.2,19.5s36.9-7.4,50.2-19.5c0.3-0.2,0.6-0.5,0.9-0.8c14.4-13.6,23.3-32.8,23.3-54.1
				C322.5,136.2,289.1,102.9,248.1,102.9z M248.1,235.4c-13.2,0-25.4-4.4-35.2-11.9c7.1-12.6,20.4-20.5,35.2-20.5
				c14.8,0,28.1,7.9,35.2,20.5C273.5,231,261.3,235.4,248.1,235.4z M235.2,174v-5.3c0-7.1,5.8-12.9,12.9-12.9s12.9,5.8,12.9,12.9
				v5.3c0,7.1-5.8,12.9-12.9,12.9S235.2,181.1,235.2,174z M295,211.7c-6-8.8-14.2-15.7-23.8-20c3.8-4.9,6.1-11.1,6.1-17.8v-5.3
				c0-16-13.1-29.1-29.1-29.1S219,152.7,219,168.7v5.3c0,6.7,2.3,12.9,6.1,17.8c-9.6,4.2-17.9,11.1-23.8,20
				c-7.1-9.7-11.4-21.6-11.4-34.5c0-32.1,26.1-58.2,58.2-58.2s58.2,26.1,58.2,58.2C306.3,190.1,302.1,202.1,295,211.7z"/>
		</g>
	</g>
	<g>
		<g>
			<path class="st0" d="M291.8,413.3h-43.7c-4.5,0-8.1,3.6-8.1,8.1s3.6,8.1,8.1,8.1h43.7c4.5,0,8.1-3.6,8.1-8.1
				S296.2,413.3,291.8,413.3z"/>
		</g>
	</g>
	<g>
		<g>
			<path class="st0" d="M291.8,368H177c-4.5,0-8.1,3.6-8.1,8.1c0,4.5,3.6,8.1,8.1,8.1h114.8c4.5,0,8.1-3.6,8.1-8.1
				C299.9,371.6,296.2,368,291.8,368z"/>
		</g>
	</g>
	<g>
		<g>
			<path class="st0" d="M291.8,322.7H177c-4.5,0-8.1,3.6-8.1,8.1c0,4.5,3.6,8.1,8.1,8.1h114.8c4.5,0,8.1-3.6,8.1-8.1
				C299.9,326.3,296.2,322.7,291.8,322.7z"/>
		</g>
	</g>
	<g>
		<g>
			<path class="st0" d="M148.2,279.8c-1.5-1.5-3.6-2.4-5.7-2.4c-2.1,0-4.2,0.9-5.7,2.4c-1.5,1.5-2.4,3.6-2.4,5.7
				c0,2.1,0.9,4.2,2.4,5.7c1.5,1.5,3.6,2.4,5.7,2.4c2.1,0,4.2-0.9,5.7-2.4c1.5-1.5,2.4-3.6,2.4-5.7
				C150.6,283.4,149.7,281.3,148.2,279.8z"/>
		</g>
	</g>
	<g>
		<g>
			<path class="st0" d="M148.2,325.1c-1.5-1.5-3.6-2.4-5.7-2.4c-2.1,0-4.2,0.9-5.7,2.4c-1.5,1.5-2.4,3.6-2.4,5.7
				c0,2.1,0.9,4.2,2.4,5.7c1.5,1.5,3.6,2.4,5.7,2.4c2.1,0,4.2-0.9,5.7-2.4c1.5-1.5,2.4-3.6,2.4-5.7
				C150.6,328.7,149.7,326.6,148.2,325.1z"/>
		</g>
	</g>
	<g>
		<g>
			<path class="st0" d="M148.2,370.4c-1.5-1.5-3.6-2.4-5.7-2.4c-2.1,0-4.2,0.9-5.7,2.4c-1.5,1.5-2.4,3.6-2.4,5.7
				c0,2.1,0.9,4.2,2.4,5.7c1.5,1.5,3.6,2.4,5.7,2.4c2.1,0,4.2-0.9,5.7-2.4c1.5-1.5,2.4-3.6,2.4-5.7
				C150.6,374,149.7,371.9,148.2,370.4z"/>
		</g>
	</g>
	<g>
		<g>
			<path class="st0" d="M291.8,277.5H177c-4.5,0-8.1,3.6-8.1,8.1s3.6,8.1,8.1,8.1h114.8c4.5,0,8.1-3.6,8.1-8.1
				S296.2,277.5,291.8,277.5z"/>
		</g>
	</g>
	<g>
		<g>
			<path class="st0" d="M473.7,164.6c-7.9-4.5-17-5.7-25.8-3.4c-8.8,2.3-16.1,8-20.6,15.8L325.6,353.2c-0.6,1-0.9,2-1,3.1l-7.2,64.1
				c-0.4,3.2,1.2,6.3,4,7.9c1.3,0.7,2.6,1.1,4,1.1c1.7,0,3.4-0.5,4.8-1.6l52-38.3c0.9-0.7,1.6-1.5,2.2-2.5l101.7-176.2
				C495.4,194.7,489.9,173.9,473.7,164.6z M335.5,403.9l3.7-33.5l23.4,13.5L335.5,403.9z M374.4,372l-30.8-17.8l81.6-141.4
				l30.8,17.8L374.4,372z M472.1,202.8l-8,13.8l-30.8-17.8l8-13.8c2.4-4.1,6.2-7.1,10.8-8.3c4.6-1.2,9.4-0.6,13.5,1.8
				c4.1,2.4,7.1,6.2,8.3,10.8C475.1,193.9,474.5,198.7,472.1,202.8z"/>
		</g>
	</g>
</g>
</svg>
