<?xml version="1.0" encoding="utf-8"?>
<!-- Generator: Adobe Illustrator 22.1.0, SVG Export Plug-In . SVG Version: 6.00 Build 0)  -->
<svg version="1.1" id="Camada_1" xmlns="http://www.w3.org/2000/svg" xmlns:xlink="http://www.w3.org/1999/xlink" x="0px" y="0px"
	 viewBox="0 0 845.3 834.7" style="enable-background:new 0 0 845.3 834.7;" xml:space="preserve">
<style type="text/css">
	.st0{fill:#585858;}
</style>
<g>
	<path class="st0" d="M400,16c18.4,0,36.7,0,55.1,0c2,0.5,3.9,1.3,5.9,1.5c39.1,3.1,77.1,11.3,113.2,26.6
		c136.6,57.9,220.1,159.5,249.1,305.3c2.8,14,4.1,28.4,6.1,42.6c0,17.8,0,35.7,0,53.5c-0.5,2.3-1.3,4.5-1.5,6.8
		c-2.9,38.6-11.6,76-25.7,112c-67.9,173.9-244.7,278.3-429.8,253.5c-68-9.1-130.1-33.9-184.8-75.4C87.1,666.1,32.1,564.5,24.6,438.5
		C20.2,365,35.5,295,71.1,230.4C135.6,113.4,234,43.2,366,20.7C377.3,18.7,388.7,17.5,400,16z M225.3,418.5
		c-0.6,109.3,89.8,200.8,199.2,201.5c111.8,0.7,202.8-88.9,203.5-200.4c0.7-110.3-89.7-201.8-200-202.3
		C316.7,216.7,226,306.8,225.3,418.5z M289.8,742.9c90.6,40,200,34.3,273.7-0.4c-12.9-30.4-25.7-60.8-38.8-91.6
		c-32,12.8-64.3,19.4-97.9,19.5c-33.8,0-66.3-6.9-98-19.4C315.6,682,302.8,712.3,289.8,742.9z M659,320.7
		c26.1,65.9,25.9,130.7,0,196c30.9,13.1,61.3,26,92.5,39.2c36.6-91.9,36.7-182.7-0.1-274.4C720.1,294.8,689.9,307.6,659,320.7z
		 M101.9,281.5c-36.7,91.9-36.7,182.7,0,274.3c31.5-13.4,61.9-26.3,92.5-39.2c-26.1-65.7-26-130.5,0-196
		C163.6,307.6,133.1,294.8,101.9,281.5z M564,93.8c-91.8-36.4-182.7-36.5-274.4,0.1c13.3,31.5,26.2,61.9,39.2,92.5
		c65.8-25.9,130.6-25.7,196,0C537.8,155.5,550.7,125.1,564,93.8z"/>
</g>
</svg>
