<?xml version="1.0" encoding="utf-8"?>
<!-- Generator: Adobe Illustrator 22.1.0, SVG Export Plug-In . SVG Version: 6.00 Build 0)  -->
<svg version="1.1" id="Camada_1" xmlns="http://www.w3.org/2000/svg" xmlns:xlink="http://www.w3.org/1999/xlink" x="0px" y="0px"
	 viewBox="0 0 546.7 547.4" style="enable-background:new 0 0 546.7 547.4;" xml:space="preserve">
<style type="text/css">
	.st0{fill:#575757;}
</style>
<g>
	<g>
		<path class="st0" d="M66.5,125.5h24.2v32.2c0,4.5,3.6,8.1,8.1,8.1h96.7c4.5,0,8.1-3.6,8.1-8.1v-32.2h282c4.5,0,8.1-3.6,8.1-8.1
			c0-4.5-3.6-8.1-8.1-8.1h-282V77.1c0-4.5-3.6-8.1-8.1-8.1H98.7c-4.5,0-8.1,3.6-8.1,8.1v32.2H66.5c-4.5,0-8.1,3.6-8.1,8.1
			C58.4,121.8,62,125.5,66.5,125.5z M106.7,85.2h80.6v64.4h-80.6V85.2z"/>
		<path class="st0" d="M485.4,262.4H332.3v-32.2c0-4.5-3.6-8.1-8.1-8.1h-96.7c-4.5,0-8.1,3.6-8.1,8.1v32.2H66.5
			c-4.5,0-8.1,3.6-8.1,8.1c0,4.5,3.6,8.1,8.1,8.1h153.1v32.2c0,4.5,3.6,8.1,8.1,8.1h96.7c4.5,0,8.1-3.6,8.1-8.1v-32.2h153.1
			c4.5,0,8.1-3.6,8.1-8.1C493.4,266,489.8,262.4,485.4,262.4z M316.2,302.7h-80.6v-64.4h80.6V302.7z"/>
		<path class="st0" d="M485.4,415.5h-24.2v-32.2c0-4.5-3.6-8.1-8.1-8.1h-96.7c-4.5,0-8.1,3.6-8.1,8.1v32.2h-282
			c-4.5,0-8.1,3.6-8.1,8.1s3.6,8.1,8.1,8.1h282v32.2c0,4.5,3.6,8.1,8.1,8.1h96.7c4.5,0,8.1-3.6,8.1-8.1v-32.2h24.2
			c4.5,0,8.1-3.6,8.1-8.1S489.8,415.5,485.4,415.5z M445.1,455.8h-80.6v-64.4h80.6V455.8z"/>
	</g>
</g>
</svg>
