<?xml version="1.0" encoding="utf-8"?>
<!-- Generator: Adobe Illustrator 22.1.0, SVG Export Plug-In . SVG Version: 6.00 Build 0)  -->
<svg version="1.1" id="Capa_1" xmlns="http://www.w3.org/2000/svg" xmlns:xlink="http://www.w3.org/1999/xlink" x="0px" y="0px"
	 viewBox="0 0 582 566" style="enable-background:new 0 0 582 566;" xml:space="preserve">
<style type="text/css">
	.st0{fill:#FFFFFF;}
</style>
<path class="st0" d="M547,282.1c0-141.2-114.8-256-256-256S35,140.9,35,282.1c0,74.6,32.1,141.8,83.1,188.6l-0.2,0.2l8.3,7
	c0.5,0.5,1.1,0.8,1.7,1.3c4.4,3.7,9,7.1,13.6,10.5c1.5,1.1,3,2.2,4.6,3.2c5,3.4,10.1,6.7,15.3,9.8c1.1,0.7,2.3,1.3,3.4,2
	c5.7,3.2,11.5,6.3,17.5,9.1c0.4,0.2,0.9,0.4,1.3,0.6c19.4,9,40.2,15.7,61.9,19.6c0.6,0.1,1.1,0.2,1.7,0.3c6.7,1.2,13.6,2.1,20.5,2.7
	c0.8,0.1,1.7,0.1,2.5,0.2c6.9,0.6,13.8,0.9,20.9,0.9c7,0,13.9-0.4,20.7-0.9c0.9-0.1,1.7-0.1,2.6-0.2c6.8-0.6,13.6-1.5,20.3-2.7
	c0.6-0.1,1.2-0.2,1.7-0.3c21.4-3.8,41.8-10.3,61-19.1c0.7-0.3,1.4-0.6,2.1-1c5.7-2.7,11.4-5.6,16.9-8.7c1.4-0.8,2.7-1.6,4.1-2.4
	c5-3,9.9-6,14.7-9.3c1.7-1.2,3.4-2.4,5.1-3.6c4.1-2.9,8.1-6,12-9.2c0.9-0.7,1.8-1.3,2.6-2l8.5-7.1l-0.3-0.2
	C514.6,424.5,547,357,547,282.1z M428.3,478.5c0-0.1,0-0.1,0-0.2V341c0-6.4-2.2-11.8-6.7-16.2c-4.5-4.5-9.9-6.7-16.2-6.7H230v-76.3
	c0-16.9,6-31.2,17.9-43.2c11.9-11.9,26.3-17.9,43.2-17.9c16.8,0,31.2,6,43.2,17.9c11.9,11.9,17.9,26.3,17.9,43.2
	c0,4.1,1.5,7.7,4.5,10.7c3,3,6.6,4.5,10.7,4.5h15.3c4.1,0,7.7-1.5,10.7-4.5c3-3,4.5-6.6,4.5-10.7c0-29.4-10.5-54.6-31.4-75.5
	C345.6,145.4,320.4,135,291,135c-29.4,0-54.6,10.5-75.5,31.4c-20.9,20.9-31.4,46.1-31.4,75.5v76.3h-7.6c-6.4,0-11.8,2.2-16.2,6.7
	c-4.5,4.4-6.7,9.9-6.7,16.2v137.3c0,0.1,0,0.1,0,0.2C91.8,435.2,51.3,363.4,51.3,282.1C51.3,149.7,158.6,42.4,291,42.4
	s239.7,107.3,239.7,239.7C530.7,363.4,490.2,435.2,428.3,478.5z"/>
</svg>
