<?xml version="1.0" encoding="utf-8"?>
<!-- Generator: Adobe Illustrator 22.1.0, SVG Export Plug-In . SVG Version: 6.00 Build 0)  -->
<svg version="1.1" id="Camada_1" xmlns="http://www.w3.org/2000/svg" xmlns:xlink="http://www.w3.org/1999/xlink" x="0px" y="0px"
	 viewBox="0 0 516 458" style="enable-background:new 0 0 516 458;" xml:space="preserve">
<style type="text/css">
	.st0{fill:#585858;}
</style>
<g>
	<path class="st0" d="M136.3,338.7c0-29-0.4-57.6,0.2-86.2c0.2-8.7,2.2-17.5,4.5-26c15.6-56.2,69.9-94,128.1-89.7
		c65.1,4.8,115,57.7,115.7,123c0.3,26.1,0,52.3,0,78.8C302,338.7,219.4,338.7,136.3,338.7z"/>
	<path class="st0" d="M261.5,359.7c48.2,0,96.3,0.2,144.5-0.1c11.7-0.1,18.6,6.1,18.1,18.3c-0.7,14-0.1,28-0.2,42
		c0,11.1-5.5,16.6-16.6,16.6c-97.3,0-194.6,0-292,0c-12.1,0-17.2-5.3-17.2-17.4c0-13.8,0-27.7,0-41.5c0-12.7,5.1-17.7,17.9-17.7
		C164.5,359.6,213,359.7,261.5,359.7L261.5,359.7z"/>
	<path class="st0" d="M59.8,281.2c-7,0-14,0.1-21,0c-11.7-0.1-20.6-8.5-20.9-19.7c-0.3-11.2,8.2-20.8,19.6-21.1c15-0.4,30-0.4,45,0
		c11.7,0.4,20.1,10,19.7,21.5c-0.4,10.9-9.3,19.2-20.8,19.3C74.2,281.2,67,281.2,59.8,281.2z"/>
	<path class="st0" d="M461.8,281.2c-7.2,0-14.3,0.1-21.5,0c-11.4-0.2-20.2-8.7-20.5-19.6c-0.3-11.2,8-20.8,19.5-21.2
		c15-0.4,30-0.4,45,0c11.8,0.3,20.2,9.9,19.8,21.4c-0.4,10.9-9.3,19.2-20.8,19.4C476.2,281.3,469,281.2,461.8,281.2z"/>
	<path class="st0" d="M281.5,59.5c0,7,0.1,14,0,21c-0.3,12.2-9.2,21.3-20.6,21.1c-11.5-0.1-20-8.7-20.2-20.9
		c-0.2-14.3-0.2-28.6,0-42.9C240.9,26,250,17,261.2,17.1c11.3,0.1,20,9.1,20.3,21C281.6,45.2,281.5,52.3,281.5,59.5z"/>
	<path class="st0" d="M131.6,154.4c-2.3-1.2-7.3-2.7-10.7-5.9c-10.9-10.1-21.3-20.6-31.5-31.3c-7.8-8.2-7.5-20.8,0.2-28.4
		c7.6-7.5,19.9-8,28-0.3c10.9,10.3,21.5,20.9,31.8,31.8c6,6.4,7,14.3,3.2,22.3C149,150.1,142.8,154,131.6,154.4z"/>
	<path class="st0" d="M438.2,102.9c0.2,5.9-2,10.8-6,14.9c-10.1,10.2-20.1,20.4-30.4,30.3c-8.8,8.4-20.4,8.2-28.5,0
		c-7.7-7.8-8-20.1-0.1-28.4c10.1-10.6,20.5-21,31.1-31.1c6.3-6.1,14-7.4,22.2-3.8C434.2,88.2,437.9,94.5,438.2,102.9z"/>
</g>
</svg>
