<?xml version="1.0" encoding="utf-8"?>
<!-- Generator: Adobe Illustrator 22.1.0, SVG Export Plug-In . SVG Version: 6.00 Build 0)  -->
<svg version="1.1" id="Capa_1" xmlns="http://www.w3.org/2000/svg" xmlns:xlink="http://www.w3.org/1999/xlink" x="0px" y="0px"
	 viewBox="0 0 641.9 587.9" style="enable-background:new 0 0 641.9 587.9;" xml:space="preserve">
<style type="text/css">
	.st0{fill:#FFFFFF;}
</style>
<path class="st0" d="M577.6,294.7c0-141.2-114.8-256-256-256s-256,114.8-256,256c0,74.6,32.1,141.8,83.1,188.6l-0.2,0.2l8.3,7
	c0.5,0.5,1.1,0.8,1.7,1.3c4.4,3.7,9,7.1,13.6,10.5c1.5,1.1,3,2.2,4.6,3.2c5,3.4,10.1,6.7,15.3,9.8c1.1,0.7,2.3,1.3,3.4,2
	c5.7,3.2,11.5,6.3,17.5,9.1c0.4,0.2,0.9,0.4,1.3,0.6c19.4,9,40.2,15.7,61.9,19.6c0.6,0.1,1.1,0.2,1.7,0.3c6.7,1.2,13.6,2.1,20.5,2.7
	c0.8,0.1,1.7,0.1,2.5,0.2c6.9,0.6,13.8,0.9,20.9,0.9c7,0,13.9-0.4,20.7-0.9c0.9-0.1,1.7-0.1,2.6-0.2c6.8-0.6,13.6-1.5,20.3-2.7
	c0.6-0.1,1.2-0.2,1.7-0.3c21.4-3.8,41.8-10.3,61-19.1c0.7-0.3,1.4-0.6,2.1-1c5.7-2.7,11.4-5.6,16.9-8.7c1.4-0.8,2.7-1.6,4.1-2.4
	c5-3,9.9-6,14.7-9.3c1.7-1.2,3.4-2.4,5.1-3.6c4.1-2.9,8.1-6,12-9.2c0.9-0.7,1.8-1.3,2.6-2l8.5-7.1l-0.3-0.2
	C545.2,437.1,577.6,369.6,577.6,294.7z M321.6,534.3C189.2,534.3,81.9,427,81.9,294.7S189.2,55,321.6,55s239.7,107.3,239.7,239.7
	S454,534.3,321.6,534.3z"/>
<g>
	<g>
		<path class="st0" d="M348.4,233c12,7.5,20.4,20.2,21.9,35c4.9,2.3,10.3,3.6,16.1,3.6c21,0,38-17,38-38c0-21-17-38-38-38
			C365.6,195.6,348.7,212.3,348.4,233z M323.5,310.9c21,0,38-17,38-38c0-21-17-38-38-38c-21,0-38,17-38,38
			C285.5,293.8,302.5,310.9,323.5,310.9z M339.6,313.5h-32.3c-26.8,0-48.7,21.8-48.7,48.7v39.5l0.1,0.6l2.7,0.9
			c25.6,8,47.9,10.7,66.2,10.7c35.8,0,56.5-10.2,57.8-10.9l2.5-1.3h0.3v-39.5C388.3,335.3,366.5,313.5,339.6,313.5z M402.5,274.2
			h-32c-0.3,12.8-5.8,24.3-14.5,32.6c23.9,7.1,41.3,29.2,41.3,55.4v12.2c31.6-1.2,49.8-10.1,51-10.7l2.5-1.3h0.3v-39.5
			C451.2,296,429.4,274.2,402.5,274.2z M256.8,271.6c7.4,0,14.4-2.2,20.2-5.9c1.9-12.2,8.4-22.8,17.7-30c0-0.7,0.1-1.4,0.1-2.1
			c0-21-17-38-38-38c-21,0-38,17-38,38C218.7,254.6,235.8,271.6,256.8,271.6z M290.9,306.8c-8.6-8.3-14.1-19.7-14.5-32.5
			c-1.2-0.1-2.4-0.2-3.6-0.2h-32.3c-26.8,0-48.7,21.8-48.7,48.7v39.5l0.1,0.6l2.7,0.9c20.6,6.4,38.9,9.4,54.8,10.3v-11.9
			C249.6,336.1,267,314,290.9,306.8z"/>
	</g>
</g>
</svg>
